<svg width="32" height="25" viewBox="0 0 32 25" fill="none" xmlns="http://www.w3.org/2000/svg">
<path d="M13.72 23.0001H7.44801V11.7041C7.44801 11.4908 7.44801 11.1068 7.44801 10.5521C7.44801 9.99743 7.45868 9.37877 7.48001 8.6961C7.50134 8.01343 7.52268 7.40543 7.54401 6.8721C7.26668 7.1921 7.01068 7.46943 6.77601 7.7041C6.56268 7.93877 6.33868 8.1521 6.10401 8.3441L3.51201 10.4881L0.312012 6.5521L8.15201 0.1521H13.72V23.0001Z" fill="white"/>
<path d="M25.996 11.4081V14.6001H27.046V11.4081H25.996ZM22.342 13.9981V15.0061H30.896V13.9981H22.342ZM23.504 16.0981C24.008 17.9741 24.442 20.4101 24.54 21.8101L25.576 21.5861C25.464 20.2001 24.974 17.8061 24.442 15.9441L23.504 16.0981ZM28.614 15.8181C28.236 17.9041 27.466 20.8721 26.808 22.6361L27.746 22.8601C28.404 21.1241 29.216 18.2541 29.734 16.0141L28.614 15.8181ZM21.992 22.4681V23.4761H31.246V22.4681H21.992ZM21.614 11.2821C20.802 13.3961 19.43 15.4821 18.016 16.7981C18.212 17.0501 18.506 17.6101 18.618 17.8481C20.158 16.3081 21.656 13.9561 22.608 11.6041L21.614 11.2821ZM20.158 14.8941V24.0921H21.166V13.9141L21.152 13.9001L20.158 14.8941Z" fill="white"/>
</svg>
