<svg width="33" height="26" viewBox="0 0 33 26" fill="none" xmlns="http://www.w3.org/2000/svg">
<path d="M17.536 24H0.959999V19.936L6.528 14.304C7.68 13.088 8.576 12.1174 9.216 11.392C9.87733 10.6667 10.336 10.048 10.592 9.53603C10.848 9.02403 10.976 8.4907 10.976 7.93603C10.976 7.25336 10.752 6.7627 10.304 6.46403C9.87733 6.16536 9.36533 6.01603 8.768 6.01603C8.04267 6.01603 7.31733 6.2187 6.592 6.62403C5.86667 7.02936 5.03467 7.63736 4.096 8.44803L0.703999 4.48003C1.38667 3.86136 2.112 3.2747 2.88 2.72003C3.66933 2.16536 4.58667 1.71736 5.632 1.37603C6.67733 1.01336 7.95733 0.832031 9.472 0.832031C11.0293 0.832031 12.3733 1.10936 13.504 1.66403C14.6347 2.19736 15.5093 2.93336 16.128 3.87203C16.768 4.8107 17.088 5.87736 17.088 7.07203C17.088 8.05337 16.9493 8.96003 16.672 9.79203C16.416 10.6027 16.0107 11.392 15.456 12.16C14.9227 12.928 14.24 13.728 13.408 14.56C12.5973 15.3707 11.648 16.2667 10.56 17.248L8.896 18.752V18.912H17.536V24Z" fill="white"/>
<path d="M26.996 12.408V15.6H28.046V12.408H26.996ZM23.342 14.998V16.006H31.896V14.998H23.342ZM24.504 17.098C25.008 18.974 25.442 21.41 25.54 22.81L26.576 22.586C26.464 21.2 25.974 18.806 25.442 16.944L24.504 17.098ZM29.614 16.818C29.236 18.904 28.466 21.872 27.808 23.636L28.746 23.86C29.404 22.124 30.216 19.254 30.734 17.014L29.614 16.818ZM22.992 23.468V24.476H32.246V23.468H22.992ZM22.614 12.282C21.802 14.396 20.43 16.482 19.016 17.798C19.212 18.05 19.506 18.61 19.618 18.848C21.158 17.308 22.656 14.956 23.608 12.604L22.614 12.282ZM21.158 15.894V25.092H22.166V14.914L22.152 14.9L21.158 15.894Z" fill="white"/>
</svg>
