<svg width="32" height="26" viewBox="0 0 32 26" fill="none" xmlns="http://www.w3.org/2000/svg">
<path d="M15.768 6.11203C15.768 7.20003 15.5333 8.1387 15.064 8.92803C14.5947 9.69603 13.976 10.336 13.208 10.848C12.4613 11.3387 11.6293 11.712 10.712 11.968V12.064C12.5467 12.2774 13.9547 12.832 14.936 13.728C15.9387 14.6027 16.44 15.8507 16.44 17.472C16.44 18.7094 16.0987 19.8507 15.416 20.896C14.7547 21.9414 13.72 22.7734 12.312 23.392C10.9253 24.0107 9.12268 24.32 6.90401 24.32C5.43201 24.32 4.17335 24.2134 3.12801 24C2.08268 23.7654 1.06935 23.456 0.0880127 23.072V17.952C1.09068 18.464 2.11468 18.848 3.16001 19.104C4.20535 19.3387 5.15468 19.456 6.00801 19.456C7.52268 19.456 8.54668 19.2427 9.08001 18.816C9.63468 18.3894 9.91201 17.8134 9.91201 17.088C9.91201 16.576 9.77335 16.1387 9.49601 15.776C9.24001 15.392 8.76001 15.104 8.05601 14.912C7.37335 14.72 6.37068 14.624 5.04801 14.624H3.64001V9.98403H5.08001C6.25335 9.98403 7.18135 9.88803 7.86401 9.69603C8.54668 9.4827 9.03735 9.1947 9.33601 8.83203C9.63468 8.46936 9.78401 8.05337 9.78401 7.58403C9.78401 6.96536 9.54935 6.51736 9.08001 6.24003C8.61068 5.94137 7.99201 5.79203 7.22401 5.79203C6.54135 5.79203 5.89068 5.88803 5.27201 6.08003C4.67468 6.27203 4.15201 6.48537 3.70401 6.72003C3.25601 6.93336 2.91468 7.1147 2.68001 7.26403L0.120013 3.13603C0.760013 2.70936 1.44268 2.32536 2.16801 1.98403C2.91468 1.62136 3.76801 1.34403 4.72801 1.15203C5.70935 0.938698 6.86135 0.832031 8.18401 0.832031C10.5307 0.832031 12.376 1.30136 13.72 2.24003C15.0853 3.1787 15.768 4.46936 15.768 6.11203Z" fill="white"/>
<path d="M25.996 12.408V15.6H27.046V12.408H25.996ZM22.342 14.998V16.006H30.896V14.998H22.342ZM23.504 17.098C24.008 18.974 24.442 21.41 24.54 22.81L25.576 22.586C25.464 21.2 24.974 18.806 24.442 16.944L23.504 17.098ZM28.614 16.818C28.236 18.904 27.466 21.872 26.808 23.636L27.746 23.86C28.404 22.124 29.216 19.254 29.734 17.014L28.614 16.818ZM21.992 23.468V24.476H31.246V23.468H21.992ZM21.614 12.282C20.802 14.396 19.43 16.482 18.016 17.798C18.212 18.05 18.506 18.61 18.618 18.848C20.158 17.308 21.656 14.956 22.608 12.604L21.614 12.282ZM20.158 15.894V25.092H21.166V14.914L21.152 14.9L20.158 15.894Z" fill="white"/>
</svg>
