<svg width="33" height="25" viewBox="0 0 33 25" fill="none" xmlns="http://www.w3.org/2000/svg">
<path d="M18.272 18.5841H15.744V23.0001H9.66401V18.5841H0.544006V14.0401L10.048 0.1521H15.744V13.9761H18.272V18.5841ZM9.66401 11.3201C9.66401 11.0854 9.66401 10.7868 9.66401 10.4241C9.68534 10.0401 9.69601 9.66677 9.69601 9.3041C9.71734 8.94143 9.73867 8.6321 9.76001 8.3761C9.78134 8.1201 9.79201 7.98143 9.79201 7.9601H9.63201C9.41867 8.42943 9.22667 8.81343 9.05601 9.1121C8.90667 9.41077 8.69334 9.77343 8.41601 10.2001L5.88801 13.9761H9.66401V11.3201Z" fill="white"/>
<path d="M26.996 11.4081V14.6001H28.046V11.4081H26.996ZM23.342 13.9981V15.0061H31.896V13.9981H23.342ZM24.504 16.0981C25.008 17.9741 25.442 20.4101 25.54 21.8101L26.576 21.5861C26.464 20.2001 25.974 17.8061 25.442 15.9441L24.504 16.0981ZM29.614 15.8181C29.236 17.9041 28.466 20.8721 27.808 22.6361L28.746 22.8601C29.404 21.1241 30.216 18.2541 30.734 16.0141L29.614 15.8181ZM22.992 22.4681V23.4761H32.246V22.4681H22.992ZM22.614 11.2821C21.802 13.3961 20.43 15.4821 19.016 16.7981C19.212 17.0501 19.506 17.6101 19.618 17.8481C21.158 16.3081 22.656 13.9561 23.608 11.6041L22.614 11.2821ZM21.158 14.8941V24.0921H22.166V13.9141L22.152 13.9001L21.158 14.8941Z" fill="white"/>
</svg>
