<svg width="32" height="25" viewBox="0 0 32 25" fill="none" xmlns="http://www.w3.org/2000/svg">
<path d="M9.368 8.0241C10.648 8.0241 11.8107 8.3121 12.856 8.8881C13.9013 9.4641 14.7333 10.2961 15.352 11.3841C15.9707 12.4721 16.28 13.8054 16.28 15.3841C16.28 17.0908 15.9387 18.5414 15.256 19.7361C14.5733 20.9094 13.5493 21.8054 12.184 22.4241C10.8187 23.0214 9.09067 23.3201 7 23.3201C5.67733 23.3201 4.472 23.2134 3.384 23.0001C2.296 22.7868 1.32533 22.4774 0.472 22.0721V17.0161C1.28267 17.3788 2.25333 17.7094 3.384 18.0081C4.51467 18.3068 5.54933 18.4561 6.488 18.4561C7.256 18.4561 7.896 18.3494 8.408 18.1361C8.94133 17.9228 9.34667 17.6028 9.624 17.1761C9.90133 16.7281 10.04 16.1948 10.04 15.5761C10.04 14.7014 9.72 14.0188 9.08 13.5281C8.46133 13.0374 7.52267 12.7921 6.264 12.7921C5.688 12.7921 5.12267 12.8561 4.568 12.9841C4.03467 13.0908 3.55467 13.2081 3.128 13.3361L0.856 12.2161L1.72 0.1521H14.744V5.3041H6.968L6.68 8.3121C7.02133 8.2481 7.36267 8.1841 7.704 8.1201C8.06667 8.0561 8.62133 8.0241 9.368 8.0241Z" fill="white"/>
<path d="M25.996 11.4081V14.6001H27.046V11.4081H25.996ZM22.342 13.9981V15.0061H30.896V13.9981H22.342ZM23.504 16.0981C24.008 17.9741 24.442 20.4101 24.54 21.8101L25.576 21.5861C25.464 20.2001 24.974 17.8061 24.442 15.9441L23.504 16.0981ZM28.614 15.8181C28.236 17.9041 27.466 20.8721 26.808 22.6361L27.746 22.8601C28.404 21.1241 29.216 18.2541 29.734 16.0141L28.614 15.8181ZM21.992 22.4681V23.4761H31.246V22.4681H21.992ZM21.614 11.2821C20.802 13.3961 19.43 15.4821 18.016 16.7981C18.212 17.0501 18.506 17.6101 18.618 17.8481C20.158 16.3081 21.656 13.9561 22.608 11.6041L21.614 11.2821ZM20.158 14.8941V24.0921H21.166V13.9141L21.152 13.9001L20.158 14.8941Z" fill="white"/>
</svg>
