<svg width="181" height="100" viewBox="0 0 181 100" fill="none" xmlns="http://www.w3.org/2000/svg">
<path d="M4.75309 37.9841C5.72101 28.3829 8.83087 19.0034 13.7048 10.6808C15.1021 8.2969 16.6445 6.00198 18.315 3.80073C17.1738 3.65085 16.0326 3.50254 14.8913 3.35267C15.5392 8.10332 18.6756 12.5136 22.9501 14.6899C25.4074 15.9404 28.091 16.5227 30.7232 17.2736C31.2306 17.4188 31.8925 17.5796 32.3156 17.7717C32.9541 18.0605 32.4092 17.9278 32.5997 17.7451C32.4873 17.8528 32.3936 18.1854 32.2625 18.3462C32.1641 18.4679 32.0205 18.5913 31.905 18.7037C31.4616 19.1346 30.9792 19.5358 30.489 19.9105C28.2409 21.6262 25.6759 22.8611 22.9501 23.5995C21.1126 24.0975 21.2266 26.661 22.9501 27.2121C25.359 27.9833 27.7632 28.7717 30.1612 29.5772C31.0979 29.8926 32.3827 30.2517 33.1024 30.5998C33.2913 30.6904 33.4833 30.7871 33.6519 30.912C33.6785 30.9323 33.8003 31.1447 33.755 31.0198C33.6629 30.7684 33.8252 31.3617 33.7722 31.0682C33.73 30.8355 33.6832 31.2742 33.7659 31.1087C33.4459 31.7535 32.7683 32.2109 32.1157 32.6215C30.987 33.3303 29.8427 34.0141 28.7061 34.7088C26.5205 36.0467 24.3349 37.3862 22.1477 38.7241C22.9048 39.7046 23.6604 40.685 24.4176 41.667C24.8625 41.2111 25.3059 40.7552 25.7508 40.2994C27.4354 38.5711 24.7892 35.9203 23.1015 37.6501C22.6566 38.1059 22.2132 38.5618 21.7683 39.0176C20.307 40.5164 22.1867 43.0939 24.0382 41.9605C26.661 40.354 29.2853 38.7476 31.9081 37.1427C34.0094 35.8563 36.946 34.4684 37.4393 31.7707C37.725 30.2111 37.0412 28.7873 35.7907 27.8599C34.8478 27.1605 33.6941 26.8233 32.595 26.4502C29.7209 25.4745 26.8374 24.5253 23.9461 23.5995C23.9461 24.8032 23.9461 26.0084 23.9461 27.2121C26.6735 26.4721 29.3056 25.2887 31.6333 23.6822C33.8112 22.1788 37.2114 19.7528 36.1389 16.6523C35.5987 15.0927 34.114 14.3933 32.6465 13.9343C31.2821 13.5065 29.8895 13.1756 28.5141 12.7868C26.0381 12.0874 23.7057 11.1445 21.8869 9.32103C19.9932 7.42264 18.8676 5.02156 18.5039 2.35508C18.4071 1.64475 17.5875 1.08897 16.9458 1.01247C16.1387 0.91568 15.5548 1.27943 15.0787 1.90702C8.9542 9.97828 4.59072 19.4171 2.38479 29.3056C1.74627 32.1657 1.29821 35.0663 1.00471 37.981C0.903236 38.9895 1.93829 39.8544 2.87812 39.8544C3.97718 39.8576 4.65161 38.9958 4.75309 37.9841Z" fill="black"/>
<path d="M48.1427 20.0353C48.4191 19.4468 48.6954 18.8582 48.9733 18.2712C47.8321 17.7904 46.6908 17.3095 45.5496 16.8271C43.8433 25.4573 42.1385 34.089 40.4321 42.7192C40.2354 43.7105 40.7147 44.7424 41.7404 45.0235C42.6615 45.2764 43.848 44.7128 44.0447 43.7152C45.751 35.085 47.4558 26.4533 49.1622 17.8232C49.3433 16.9114 48.9795 15.9763 48.0772 15.6125C47.2794 15.2909 46.1413 15.522 45.7385 16.3791C45.4622 16.9676 45.1859 17.5562 44.908 18.1432C44.4771 19.058 44.652 20.1634 45.5809 20.7066C46.3942 21.1828 47.7103 20.9549 48.1427 20.0353Z" fill="black"/>
<path d="M41.361 45.0547C49.1528 45.7401 57.0071 45.2483 64.6662 43.6731C65.6575 43.4685 66.2305 42.2977 65.9744 41.3688C65.6919 40.3384 64.6646 39.856 63.6701 40.0605C56.3358 41.5686 48.8187 41.9636 41.361 41.3079C40.3525 41.2189 39.4876 42.2321 39.4876 43.1813C39.4876 44.2694 40.3494 44.9657 41.361 45.0547Z" fill="black"/>
<path d="M77.6957 19.2142C74.7873 29.4727 71.2403 39.5531 67.0298 49.3511C66.6301 50.28 66.7535 51.3603 67.7011 51.9145C68.5473 52.4094 69.79 52.1409 70.2645 51.2416C70.7938 50.2394 71.323 49.2371 71.8523 48.2348C72.3237 47.3403 72.0802 46.1975 71.1794 45.6714C70.3332 45.1765 69.0905 45.445 68.6159 46.3442C68.0867 47.3465 67.5575 48.3488 67.0282 49.3511C68.107 49.9818 69.1858 50.6125 70.263 51.2416C74.603 41.1424 78.3093 30.7872 81.3067 20.2102C81.9687 17.8856 78.3545 16.8943 77.6957 19.2142Z" fill="black"/>
<path d="M78.5684 25.1576C83.0505 33.0181 85.2471 42.012 84.9364 51.0512C85.8763 50.5126 86.8161 49.9724 87.7559 49.4338C87.3219 49.1247 86.8879 48.8156 86.4539 48.5065C85.6296 47.9195 84.3697 48.3613 83.8905 49.1793C83.3409 50.1191 83.7359 51.1542 84.5633 51.7428C84.9973 52.0519 85.4313 52.361 85.8653 52.6701C87.083 53.5381 88.6395 52.3579 88.6848 51.0527C89.0173 41.3735 86.6006 31.677 81.8047 23.267C80.6104 21.1735 77.371 23.0578 78.5684 25.1576Z" fill="black"/>
<path d="M73.454 36.7305C72.6781 36.5635 71.9007 36.398 71.1247 36.2309C70.9593 37.458 70.7922 38.6836 70.6267 39.9106C80.2717 39.6858 89.9166 39.4626 99.5615 39.2378C101.969 39.1816 101.978 35.4347 99.5615 35.491C89.9166 35.7158 80.2717 35.939 70.6267 36.1638C68.5847 36.2107 67.9946 39.3861 70.1287 39.8435C70.9046 40.0105 71.6821 40.176 72.458 40.3431C73.4462 40.5554 74.4844 40.0496 74.7623 39.0348C75.0199 38.1012 74.4485 36.9444 73.454 36.7305Z" fill="black"/>
<path d="M104.971 15.2972C104.476 28.002 103.488 40.685 102.009 53.3149C101.788 55.2132 104.652 55.7909 105.5 54.2609C106.721 52.055 107.943 49.8475 109.164 47.6416C110.334 45.5309 107.099 43.6387 105.93 45.751C104.709 47.9569 103.486 50.1644 102.265 52.3704C103.429 52.6857 104.593 53.0011 105.756 53.3164C107.236 40.6881 108.223 28.0051 108.718 15.2988C108.757 14.2871 107.828 13.4254 106.844 13.4254C105.797 13.4238 105.012 14.2824 104.971 15.2972Z" fill="black"/>
<path d="M127.336 25.5791C120.158 29.1588 112.594 31.894 104.798 33.7784C104.086 33.9501 103.539 34.6292 103.455 35.3364C103.36 36.1404 103.72 36.7321 104.35 37.2036C111.608 42.6411 120.08 46.5113 128.949 48.4175C131.398 48.9436 134.234 49.5821 135.904 47.1873C136.483 46.3567 136.055 45.1062 135.231 44.6238C134.298 44.0774 133.248 44.4646 132.668 45.2967C132.83 45.0641 132.996 45.2155 132.716 45.178C132.491 45.2264 132.457 45.2342 132.615 45.1999C132.476 45.2077 132.335 45.2093 132.196 45.203C131.709 45.1858 131.487 45.1203 130.865 44.9969C129.634 44.7518 128.41 44.4693 127.197 44.1492C124.64 43.4748 122.127 42.6364 119.677 41.6404C114.891 39.6952 110.369 37.0646 106.239 33.9704C106.089 35.1116 105.94 36.2528 105.791 37.394C113.898 35.4348 121.761 32.5388 129.225 28.8169C130.131 28.3658 130.384 27.0856 129.898 26.2535C129.36 25.3293 128.245 25.1248 127.336 25.5791Z" fill="black"/>
<path d="M138.517 24.4707C148.748 25.7617 159.02 26.7016 169.316 27.287C171.208 27.3947 171.817 24.6923 170.262 23.7962C167.502 22.2054 164.427 21.3343 161.247 21.2047C160.235 21.1641 159.373 22.0946 159.373 23.0781C159.373 24.1272 160.232 24.9109 161.247 24.9515C163.768 25.053 166.188 25.7711 168.372 27.031C168.687 25.8679 169.002 24.7033 169.318 23.5402C159.023 22.9548 148.749 22.0165 138.519 20.7238C137.514 20.5974 136.646 21.6762 136.646 22.5972C136.644 23.715 137.509 24.3426 138.517 24.4707Z" fill="black"/>
<path d="M145.401 24.6065C143.602 28.8216 142.005 33.1164 140.672 37.5033C140.015 39.664 139.42 41.8434 138.884 44.0384C138.354 46.2193 137.587 48.6345 138.225 50.8701C139.448 55.1477 144.191 56.6167 148.18 56.3076C152.501 55.9735 156.861 54.9026 160.991 53.6193C165.69 52.158 170.247 50.2159 174.565 47.8554C175.868 47.1436 175.684 45.3732 174.565 44.6207C172.67 43.3452 170.651 42.3242 168.533 41.4749C167.593 41.0987 166.475 41.8855 166.228 42.7832C165.935 43.851 166.594 44.7097 167.536 45.0875C169.344 45.8134 171.058 46.7689 172.673 47.8554C172.673 46.7767 172.673 45.6979 172.673 44.6207C165.771 48.3941 158.266 50.9731 150.506 52.2564C148.77 52.5436 146.898 52.834 145.156 52.4453C143.833 52.1502 142.653 51.4961 142.024 50.3377C141.293 48.9935 142.063 46.8344 142.428 45.3201C142.911 43.3156 143.446 41.3219 144.03 39.3455C145.321 34.982 146.849 30.6826 148.635 26.4971C149.032 25.5666 148.913 24.4894 147.964 23.9336C147.176 23.4746 145.8 23.6713 145.401 24.6065Z" fill="black"/>
<path d="M138.525 35.9827C149.044 36.3418 159.582 36.1264 170.078 35.3255C173.099 35.0944 176.115 34.815 179.127 34.4887C180.132 34.3794 181 33.705 181 32.6153C181 31.6864 180.138 30.6326 179.127 30.7419C168.662 31.8722 158.137 32.4326 147.611 32.4045C144.583 32.3967 141.554 32.339 138.525 32.2359C136.113 32.1532 136.116 35.9 138.525 35.9827Z" fill="black"/>
<path d="M36.5261 91.676C36.5979 86.7552 38.3292 82.0701 40.2448 77.5989C42.2868 72.8326 44.563 68.1148 45.7432 63.0394C44.9751 63.475 44.207 63.9121 43.4389 64.3477C52.1612 67.9992 61.9591 66.4662 70.8578 69.4121C70.7079 68.2709 70.5596 67.1297 70.4097 65.9885C67.0329 67.9774 63.6561 69.9679 60.2793 71.9568C58.7977 72.8295 57.0508 73.6195 55.8846 74.9199C54.5482 76.4093 54.3343 78.481 55.6613 80.0562C57.808 82.6024 61.7671 82.5384 64.7349 83.2878C65.3843 83.4517 66.0306 83.6438 66.6239 83.9607C66.6785 83.9903 67.3951 84.4431 67.3467 84.4696C67.2468 84.5227 67.3295 84.0684 67.3483 84.1012C67.3951 84.1777 67.1079 84.3775 67.0844 84.3962C66.8253 84.5929 66.5209 84.7459 66.2258 84.8818C65.4546 85.2361 64.635 85.5062 63.8263 85.7591C60.1029 86.9222 56.1016 87.2969 52.233 86.7318C51.2339 86.5866 50.2207 86.98 49.9287 88.04C49.6867 88.9205 50.23 90.1975 51.237 90.3443C55.0494 90.9001 58.8711 90.8095 62.6367 89.9587C64.5085 89.5356 66.3788 88.9361 68.1179 88.1165C69.6557 87.3921 71.0873 86.0183 71.0311 84.198C70.9109 80.2903 65.5248 79.6003 62.6226 79.0711C61.8373 78.9274 61.0521 78.7682 60.2887 78.5293C59.6923 78.3436 59.0085 77.958 58.601 77.7253C58.3965 77.6083 58.4262 77.5052 58.4902 77.6473C58.5589 77.8003 58.2997 77.8268 58.4793 77.5505C58.3106 77.8096 58.5729 77.5333 58.6104 77.4896C59.1115 76.9042 59.8874 76.5404 60.5728 76.1361C64.4835 73.8318 68.3927 71.5291 72.3034 69.2248C73.7428 68.3771 73.3588 66.2991 71.8554 65.8011C62.9551 62.8536 53.151 64.3851 44.4365 60.7367C43.5264 60.3557 42.3383 61.1551 42.1322 62.0449C39.7749 72.1863 32.94 80.9929 32.7824 91.6775C32.7449 94.088 36.4917 94.088 36.5261 91.676Z" fill="black"/>
<path d="M97.6897 68.964C97.379 73.7928 96.6874 78.5809 95.6117 83.2987C95.0669 85.6889 94.4268 88.0572 93.6946 90.3974C93.5182 90.9594 93.3371 91.5183 93.1513 92.0772C93.0889 92.2645 92.5862 93.2731 92.6736 93.4682C92.683 93.4541 92.6923 93.4401 92.7017 93.4245C92.9031 93.3433 93.0982 93.2481 93.2871 93.1388C93.2871 93.1013 92.9952 93.0123 92.8797 92.9717C92.2412 92.7485 91.6089 92.5128 90.9641 92.3067C88.5927 91.5511 86.162 91.0359 83.6953 90.7096C82.5463 90.5582 81.3941 90.4458 80.2358 90.388C79.6566 90.3599 79.0789 90.3505 78.4997 90.3396C78.4076 90.3381 78.0548 90.338 78.0548 90.3349C78.0298 90.4099 78.4498 90.744 78.303 90.822C78.3015 90.822 78.4232 89.9743 78.4685 89.8307C78.6355 89.2889 78.8401 88.7566 79.029 88.2227C79.4286 87.0986 79.8377 85.9793 80.2545 84.8615C81.1256 82.5353 82.0389 80.2232 82.9912 77.9299C84.0341 75.4179 85.1363 72.931 86.2822 70.4643C86.8676 69.2029 87.4671 67.9462 88.0775 66.6972C88.3835 66.0728 88.6911 65.4483 89.0033 64.8269C89.0298 64.7739 89.3998 64.0261 89.4061 64.0276C89.3592 64.0963 89.2983 64.1478 89.2219 64.1806C88.9783 64.2602 88.7254 64.279 88.4631 64.2384C88.1868 64.0776 87.912 63.9168 87.6357 63.756C87.6622 63.7856 87.6888 63.8153 87.7169 63.845C87.5561 63.5686 87.3953 63.2939 87.2345 63.0175C87.2501 63.0628 87.2657 63.1097 87.2798 63.1549C87.5998 64.115 88.5708 64.7411 89.584 64.4632C90.5223 64.2056 91.2139 63.1221 90.8923 62.1589C90.349 60.529 88.6395 60.1091 87.2563 60.9989C86.0667 61.7639 85.5703 63.322 84.9723 64.5366C83.7031 67.1234 82.487 69.7368 81.3239 72.3752C78.979 77.6972 76.759 83.1145 74.9184 88.6333C74.5031 89.8775 74.3236 91.3388 75.0402 92.5143C75.8957 93.9178 77.4413 94.0661 78.9275 94.0911C81.6627 94.1379 84.3713 94.4752 87.0315 95.1059C88.3929 95.429 89.7386 95.8224 91.0594 96.2861C92.4691 96.781 94.0833 97.3446 95.3214 96.116C96.3033 95.1433 96.6187 93.5119 97.0324 92.2318C97.4695 90.8782 97.877 89.5153 98.2517 88.1446C99.9643 81.8827 101.012 75.4398 101.43 68.9625C101.496 67.9524 100.523 67.0891 99.5568 67.0891C98.4937 67.0906 97.7537 67.9508 97.6897 68.964Z" fill="black"/>
<path d="M119.671 80.9242C124.696 81.1662 129.722 81.4081 134.746 81.6501C134.207 80.7103 133.667 79.7705 133.128 78.8306C131.492 81.8593 129.812 84.8661 128.089 87.8449C127.255 89.2843 126.429 90.733 125.55 92.1474C124.849 93.2762 124.064 94.3518 122.907 95.045C118.317 97.7973 112.14 95.3151 109.1 91.3528C105.867 87.1376 104.965 80.8524 107.099 75.9503C109.314 70.8609 114.664 68.8735 119.733 67.815C127.104 66.2773 134.753 66.0087 142.236 66.7472C141.698 65.8073 141.157 64.8675 140.619 63.9277C140.349 64.3195 140.079 64.7114 139.809 65.1033C139.234 65.9369 139.654 67.1827 140.48 67.6667C141.409 68.21 142.467 67.8306 143.043 66.9938C143.313 66.602 143.583 66.2101 143.854 65.8183C144.737 64.5366 143.521 63.1268 142.236 62.9988C134.721 62.2572 127.116 62.6038 119.696 64.0104C113.634 65.1595 107.219 67.5652 104.203 73.3665C101.185 79.171 101.702 86.6833 105.149 92.1927C108.623 97.7458 115.478 101.201 121.996 99.4459C123.828 98.9526 125.566 98.0065 126.87 96.614C128.189 95.2058 129.129 93.4838 130.1 91.8321C132.256 88.1664 134.343 84.4602 136.365 80.7197C137.059 79.4348 136.182 77.9704 134.747 77.9002C129.722 77.6582 124.696 77.4162 119.673 77.1742C118.661 77.1258 117.799 78.0703 117.799 79.0476C117.798 80.1061 118.656 80.8758 119.671 80.9242Z" fill="black"/>
</svg>
