<svg width="142" height="124" viewBox="0 0 142 124" fill="none" xmlns="http://www.w3.org/2000/svg">
<path fill-rule="evenodd" clip-rule="evenodd" d="M119.444 80.9026C119.585 80.8744 119.697 80.9449 119.81 81.0506C119.648 81.1704 119.401 81.1281 119.444 80.9026Z" fill="white"/>
<path fill-rule="evenodd" clip-rule="evenodd" d="M106.766 101.424C106.914 101.431 107.302 101.536 106.992 101.79C106.822 101.677 106.844 101.543 106.766 101.424Z" fill="white"/>
<path fill-rule="evenodd" clip-rule="evenodd" d="M106.815 102.213C106.97 102.1 107.041 102.41 107.161 102.467C106.985 102.636 106.787 102.354 106.815 102.213Z" fill="white"/>
<path fill-rule="evenodd" clip-rule="evenodd" d="M110.543 100.895C110.698 100.867 110.931 100.959 110.896 101.149C110.741 101.255 110.663 100.952 110.543 100.895Z" fill="white"/>
<path fill-rule="evenodd" clip-rule="evenodd" d="M108.436 104.095C108.697 104.045 108.923 104.165 109.113 104.454C108.852 104.553 108.662 104.242 108.436 104.095Z" fill="white"/>
<path fill-rule="evenodd" clip-rule="evenodd" d="M122.974 92.5444C123.249 92.791 124.017 93.1011 123.919 93.5662C123.778 93.0659 123.129 92.9883 122.974 92.5444Z" fill="white"/>
<path fill-rule="evenodd" clip-rule="evenodd" d="M117.971 98.9572C118.647 98.936 118.845 99.9085 119.493 100.099C119.261 100.451 118.845 99.5209 118.485 99.6337C118.408 99.5139 118.387 99.38 118.359 99.2532C118.225 99.1545 117.922 99.2391 117.971 98.9572Z" fill="white"/>
<path fill-rule="evenodd" clip-rule="evenodd" d="M121.107 103.827C121.255 103.658 121.382 103.594 121.473 103.728C121.452 103.813 121.382 103.904 121.269 104.003C121.22 103.947 121.163 103.89 121.107 103.827Z" fill="white"/>
<path fill-rule="evenodd" clip-rule="evenodd" d="M124.807 103.46C125.342 103.453 125.962 104.038 126.082 104.588C126.167 104.595 126.265 104.496 126.329 104.602C126.561 104.771 126.893 105.321 126.477 104.884C125.751 104.538 125.518 103.925 124.807 103.46Z" fill="white"/>
<path fill-rule="evenodd" clip-rule="evenodd" d="M122.009 106.66C122.164 106.631 122.298 106.709 122.418 106.85C122.241 106.963 121.988 106.772 122.009 106.66Z" fill="white"/>
<path fill-rule="evenodd" clip-rule="evenodd" d="M130.233 99.2461C130.416 99.1616 130.515 99.4998 130.663 99.5844C130.501 99.5844 130.205 99.4646 130.233 99.2461Z" fill="white"/>
<path fill-rule="evenodd" clip-rule="evenodd" d="M123.327 105.976C123.58 105.927 123.778 106.209 124.024 106.23C123.905 106.582 123.524 106.11 123.327 105.976Z" fill="white"/>
<path fill-rule="evenodd" clip-rule="evenodd" d="M122.678 107.019C122.946 106.92 123.137 107.223 123.355 107.378C123.101 107.407 122.911 107.125 122.678 107.019Z" fill="white"/>
<path fill-rule="evenodd" clip-rule="evenodd" d="M132.065 98.2384C132.284 98.0481 132.432 98.2454 132.594 98.3159C132.382 98.478 132.241 98.2736 132.065 98.2384Z" fill="white"/>
<path fill-rule="evenodd" clip-rule="evenodd" d="M130.811 99.8663C131.121 99.8381 131.551 100.367 131.755 100.634C131.318 100.472 131.1 100.233 130.811 99.8663Z" fill="white"/>
<path fill-rule="evenodd" clip-rule="evenodd" d="M123.439 107.463C123.933 107.414 124.038 107.949 124.201 108.161C123.841 108.111 123.834 107.526 123.439 107.463Z" fill="white"/>
<path fill-rule="evenodd" clip-rule="evenodd" d="M126.801 105.236C126.984 105.215 127.146 105.342 127.315 105.412C127.076 105.701 126.956 105.37 126.801 105.236Z" fill="white"/>
<path fill-rule="evenodd" clip-rule="evenodd" d="M126.561 106.223C126.808 106.173 126.836 106.335 126.949 106.519C126.78 106.617 126.695 106.293 126.561 106.223Z" fill="white"/>
<path fill-rule="evenodd" clip-rule="evenodd" d="M126.202 107.329C126.406 107.216 126.759 107.512 126.371 107.759C126.258 107.688 126.378 107.59 126.47 107.491C126.392 107.357 126.265 107.498 126.202 107.329Z" fill="white"/>
<path fill-rule="evenodd" clip-rule="evenodd" d="M131.67 103.658C131.219 103.686 131.226 102.953 131.67 103.658V103.658Z" fill="white"/>
<path fill-rule="evenodd" clip-rule="evenodd" d="M134.341 101.931C134.637 101.987 134.778 102.192 134.94 102.453C134.729 102.396 134.377 102.072 134.341 101.931Z" fill="white"/>
<path fill-rule="evenodd" clip-rule="evenodd" d="M134.828 101.713C134.954 101.466 135.286 101.818 135.032 101.931C134.969 101.861 134.898 101.783 134.828 101.713Z" fill="white"/>
<path fill-rule="evenodd" clip-rule="evenodd" d="M138.386 98.9572C138.57 98.8938 138.732 98.9995 138.795 99.1475C138.619 99.2673 138.372 99.077 138.386 98.9572Z" fill="white"/>
<path fill-rule="evenodd" clip-rule="evenodd" d="M139.295 100.437C139.923 100.522 139.768 100.923 139.295 100.437V100.437Z" fill="white"/>
<path fill-rule="evenodd" clip-rule="evenodd" d="M129.789 90.684C129.937 90.6769 130.078 90.7403 130.24 90.6699C130.134 91.0434 130.585 91.0715 130.656 91.3605C130.17 91.4098 130.268 90.839 129.789 90.684Z" fill="white"/>
<path fill-rule="evenodd" clip-rule="evenodd" d="M129.423 100.613C129.549 100.698 129.401 100.818 129.563 100.895C129.479 101.001 129.423 100.952 129.338 101.029C129.507 101.29 129.711 101.318 129.895 101.501C129.824 101.522 129.754 101.551 129.669 101.635C130.233 101.558 130 102.347 130.656 102.699C129.831 102.558 129.021 101.233 128.521 100.895C128.816 100.719 128.972 101.311 129.275 101.092C129.486 100.902 129.084 100.811 129.423 100.613Z" fill="white"/>
<path fill-rule="evenodd" clip-rule="evenodd" d="M124.236 106.702C124.292 106.744 124.32 106.667 124.299 106.646C124.454 106.519 124.518 106.808 124.504 106.871C124.278 106.977 123.813 106.314 124.236 106.702Z" fill="white"/>
<path fill-rule="evenodd" clip-rule="evenodd" d="M128.069 109.218C127.985 109.295 127.907 109.373 127.823 109.45C128.112 109.711 128.598 110.092 128.563 110.5C128.069 110.345 127.802 109.239 127.189 109.387C127.196 109.267 127.097 109.168 127.104 109.049C125.976 108.668 125.561 107.449 124.539 106.899C125.525 106.617 125.455 108.28 126.505 108.027C126.533 108.125 126.442 108.09 126.406 108.041C126.766 108.386 127.245 109.154 128.069 109.218Z" fill="white"/>
<path fill-rule="evenodd" clip-rule="evenodd" d="M135.398 101.332C135.575 101.29 135.715 101.388 135.892 101.36C135.913 101.417 135.321 101.579 135.398 101.332Z" fill="white"/>
<path fill-rule="evenodd" clip-rule="evenodd" d="M54.1036 11.3481C53.9133 11.1508 53.4834 11.1649 53.2861 10.9605C52.814 10.4954 52.6237 9.84007 52.0318 9.48067C51.5103 9.16355 50.7915 9.09308 50.2911 8.71958C49.9176 8.44475 49.7203 8.43065 49.4314 8.28971C48.5787 7.87394 48.17 7.24675 47.282 7.58501C46.4293 7.54977 45.633 7.23265 44.8719 7.21856C44.7521 7.21856 44.6535 7.05648 44.6042 7.05648C42.6662 7.02124 40.5028 7.96555 38.6635 7.48635C38.2125 7.74004 37.6346 8.17696 36.9933 8.42361C36.7114 8.52931 36.3802 8.45884 36.1124 8.59978C35.1329 9.10717 34.393 10.2629 33.3852 10.3827C33.1738 10.5448 33.202 10.6787 33.1033 10.8267C31.6023 12.2995 30.5241 13.73 29.2697 14.773C28.8963 15.7596 28.0365 16.4784 27.6278 17.3593C27.3741 17.9019 27.2825 18.5714 27.0852 19.1351C26.8597 19.7835 26.7469 20.3472 26.4862 20.9744C26.0351 21.4184 26.2254 21.7778 25.9012 22.2077C25.9576 22.8208 25.8237 23.455 25.8942 24.061C25.7744 24.2443 25.7674 24.4134 25.5912 24.6037C25.5348 26.0765 25.3093 27.7396 25.9858 29.0081C26.0492 29.1208 26.1831 29.3604 26.2959 29.4661C27.0288 30.1708 27.9872 31.4393 27.7687 32.4188C27.8533 32.595 27.9942 32.447 28.0788 32.6232C27.8744 32.9897 27.7194 33.9128 28.0717 34.2299C28.1915 34.3356 28.7765 34.1524 29.0936 34.3357C29.5657 34.6105 29.4036 35.4773 29.8194 35.738C30.0097 35.8578 30.5171 35.6746 30.7567 35.7592C31.3839 35.9776 32.0886 36.9713 32.3211 37.4434C32.5043 37.8169 32.3211 38.2045 32.5889 38.3595C32.8356 38.4934 33.2866 38.3313 33.7305 37.8521C35.2879 37.387 35.9151 39.5787 37.1977 39.9733C37.4514 40.9528 38.6423 40.9458 39.1709 41.6012C39.2766 41.7351 39.2907 41.9958 39.4175 42.1156C39.6289 42.3129 40.087 42.3904 40.4252 42.5807C40.9961 42.9049 41.3555 43.3207 41.884 43.5321C41.8558 44.6948 42.9551 44.42 43.4062 44.9274C43.5753 45.1177 43.5612 45.4841 43.7585 45.6814C43.9276 45.8506 44.2659 45.8365 44.435 46.0408C44.6042 46.2381 44.6042 46.6187 44.7874 46.7949C44.9213 46.9217 45.1468 46.9147 45.2384 47.0345C45.3652 47.1965 45.3089 47.4291 45.485 47.5489C45.6683 47.6828 46.0558 47.6123 46.2461 47.7462C46.9226 48.2325 47.3032 49.1063 48.2968 49.212C48.917 50.5791 50.3827 50.8469 51.1579 52.4184C51.5737 52.5875 51.8767 52.7214 52.0599 53.1443C52.1727 53.1724 52.3136 53.0245 52.4052 53.1443C52.8422 53.9335 53.9838 54.0745 54.3996 54.9201C54.4912 54.8708 54.5828 54.8356 54.6674 54.8356C55.2523 55.9913 56.3093 57.1329 57.3382 57.4712C57.5707 58.3027 58.5291 58.5705 59.1916 59.2188C59.5016 59.5218 59.6426 59.987 59.9949 60.2125C60.6855 60.6494 61.2634 61.5373 61.8835 62.0024C62.0668 62.1434 62.398 62.1293 62.5812 62.2561C62.9195 62.4887 63.0534 62.9679 63.448 63.1863C64.9631 64.0249 66.0765 65.6105 67.1125 66.6323C67.4296 66.9494 67.8947 67.027 68.3246 67.3159C69.0293 67.788 69.3252 68.7253 69.9947 69.2397C70.1638 69.3666 70.4246 69.3948 70.5867 69.5075C71.0024 69.7965 71.2279 70.2545 71.6155 70.6139C72.5598 71.5019 73.8072 72.0938 74.3921 73.2354C75.8861 73.9401 77.3659 75.6737 78.7049 76.8929C79.318 76.8576 79.3109 77.4073 79.6492 77.661C80.6921 78.4503 82.2355 79.2466 82.9402 80.4587C87.5489 83.9117 91.4953 88.3655 96.1323 91.6987C96.1957 92.2554 96.837 92.5867 97.2809 92.6924C97.1823 92.9108 97.3796 93.0799 97.4712 93.2702C98.3662 93.3689 98.6762 94.3202 99.4021 94.8558C99.9518 94.6303 100.036 95.2998 100.572 95.2434C100.459 95.5605 100.255 95.2927 100.311 95.5817C101.425 95.2857 102.475 96.9981 103.285 97.4209C103.243 97.3787 103.341 97.2589 103.405 97.3011C103.377 97.6253 103.799 97.3505 103.955 97.5267C105.16 98.5696 106.654 98.6824 107.873 99.3871C107.894 99.6055 107.915 100.226 108.288 100.078C108.155 99.8592 107.915 99.6619 108.225 99.3871C108.415 99.7676 108.93 100.021 109.353 99.979C109.733 100.31 109.761 100.648 110.297 100.747C110.367 100.832 110.522 100.367 110.684 100.543C111.03 101.198 111.537 101.191 111.833 101.783C112.242 101.635 112.848 102.079 112.862 102.389C113.13 102.417 112.932 101.994 113.123 102.051C113.616 102.368 114.109 102.629 114.293 103.192C114.518 103.157 114.751 103.037 114.948 103.15C115.068 103.235 114.645 103.39 114.892 103.46C115.195 103.446 115.054 103.073 115.293 102.904C115.596 103.009 115.702 102.826 115.97 102.763C116.09 103.207 116.618 103.066 116.977 103.228C117.344 103.39 117.541 103.784 117.879 103.954C118.175 104.095 118.478 103.982 118.718 104.235C118.915 104.44 118.873 104.827 119.113 105.032C119.282 105.102 119.254 104.729 119.437 104.884C120.297 105.596 121.149 106.307 122.108 106.519C120.748 106.096 120.6 104.947 119.402 104.588C119.55 104.2 118.887 104.405 119.134 103.925C118.93 104.031 119 104.313 118.852 104.116C118.817 104.038 118.859 103.947 118.746 103.876C119.176 103.665 119.014 103.503 119.169 103.214C118.486 102.565 117.816 102.199 117.238 101.628C117.055 101.6 117.133 101.882 116.956 101.818C116.681 101.656 116.562 101.438 116.216 101.269C116.378 100.952 116.322 100.663 116.724 100.444C117.478 101.24 119 101.825 119.965 102.699C120.261 102.967 120.311 103.496 120.846 103.277C120.318 102.981 120.402 102.227 120.078 101.832C119.662 101.318 118.789 101.198 118.415 100.663C118.309 100.515 118.366 100.353 118.246 100.233C118.154 100.141 117.823 100.162 117.732 100.057C117.633 99.9367 117.753 99.7958 117.647 99.7183C117.428 99.5492 117.076 99.5985 116.872 99.373C116.519 98.9995 116.393 98.4216 115.92 98.1045C115.956 97.9283 116.252 97.6958 116.386 97.7381C116.837 98.2243 116.935 98.2877 117.436 98.7458C117.407 98.6683 117.428 98.5767 117.534 98.478C117.661 98.6471 117.64 98.774 117.887 98.7317C117.52 98.3864 118.013 97.9565 118.352 97.8649C119.155 98.8304 120.452 99.7042 121.008 100.599C121.213 100.55 121.438 100.437 121.621 100.515C122.587 101.184 123.355 102.255 124.377 102.988C123.729 101.628 122.474 100.796 121.17 99.7747C121.185 99.676 121.382 99.5421 121.227 99.4646C120.564 99.1404 120.029 98.5132 119.585 98.1891C119.669 97.7592 119.768 97.3293 119.881 96.8924C118.443 95.8917 118.605 93.9397 117.443 92.7699C117.633 92.5937 117.591 92.4457 117.682 92.2836C117.922 92.2273 118.183 92.1004 118.415 92.0793C118.619 92.2625 118.908 92.3612 118.951 92.6571C120.466 93.1081 121.488 94.884 123.017 95.8001C123.461 95.6521 123.574 95.3068 123.729 94.9474C123.313 94.1863 122.354 94.0665 122.101 93.0729C122.58 92.1427 123.313 91.889 123.834 92.3259C124.701 93.0588 126.005 94.5105 126.428 95.1236C129.19 97.0474 131.346 99.5492 134.074 101.621C132.876 100.148 131.262 99.2884 130.332 97.8367C130.205 97.9706 130.106 97.9847 130.029 97.879C128.922 96.6317 127.611 95.335 126.35 94.5316C126.35 93.6649 125.004 93.3407 125.011 92.4669C125.8 91.896 126.47 91.9454 127.09 92.2273C126.59 91.8044 126.385 91.1491 126.04 90.7192C125.758 90.3668 125.004 90.0215 124.99 89.7115C124.99 89.6339 125.201 89.5705 125.131 89.493C125.251 89.6339 124.863 89.2957 124.821 89.2816C124.567 89.19 124.553 89.2675 124.37 89.042C124.137 88.7531 124.151 88.746 124.144 88.4218C123.341 87.4071 122.249 86.7306 121.488 85.6876C121.41 85.5819 121.206 85.3987 121.199 85.3775C121.156 85.2507 121.347 85.2013 121.255 85.0674C121.206 84.9899 121.093 85.1591 121.008 85.0533C120.712 84.6446 120.367 84.1795 120.001 83.8413C119.078 82.9956 118.197 81.7835 117.45 81.0929C117.33 80.8885 117.746 80.8956 117.527 80.6771C116.428 79.2889 115.23 77.8583 113.961 76.463C113.884 76.3432 114.222 76.16 114.039 76.0472C113.898 75.8217 113.651 76.1529 113.51 75.9697C113.489 75.7865 113.482 75.6032 113.567 75.413C112.263 73.6653 110.452 72.3405 108.775 70.8676C107.217 69.4934 105.751 68.0206 104.314 66.6817C103.179 65.6246 101.876 64.8283 101.065 63.6796C99.5501 62.5662 98.4226 61.4175 97.1611 60.2125C96.2521 59.3457 95.4135 58.2322 94.5255 57.6262C94.3705 57.5205 94.0816 57.5064 93.9336 57.3584C93.7081 57.1329 93.6799 56.703 93.4614 56.4705C92.8554 55.8503 91.9815 55.4768 91.3896 54.8567C90.7201 54.159 90.107 53.4614 89.4516 52.7708C89.0852 52.3832 88.5285 52.214 88.1409 51.8476C87.8802 51.608 87.7815 51.1852 87.5208 50.9315C86.7879 50.2197 85.7872 49.7476 85.16 49.0076C84.3143 48.021 83.6378 46.823 82.4257 46.1818C81.5589 44.9979 80.3257 43.7435 79.2334 42.8696C78.9163 41.6012 77.5985 41.2629 76.8022 40.2481C76.7176 40.1424 76.7458 39.9874 76.6753 39.8676C75.6676 38.1481 73.5182 37.2743 72.7219 35.8578C71.9961 35.7592 71.982 35.0545 71.6719 34.6034C71.3337 34.1101 70.7417 33.934 70.333 33.5393C70.1991 33.4125 70.1991 33.1729 70.0863 33.0249C69.7269 32.5739 69.135 32.3766 68.6487 31.9749C67.9229 31.3688 67.7326 30.1426 66.6544 29.6987C66.288 28.8883 65.6749 27.7537 64.7165 27.3661C64.0259 25.7735 62.3486 25.1463 61.3832 23.7721C61.059 23.307 61.0168 22.6305 60.3332 22.5177C60.2416 21.7848 59.5651 21.4748 59.1 20.9321C58.6419 20.3966 58.3107 19.6919 57.8597 19.0999C57.2184 18.2543 56.0415 17.5918 56.1472 16.3797C57.2536 14.766 54.766 16.274 54.4418 15.4143C54.4066 14.8294 54.8294 14.4841 55.1888 13.8569C55.1113 13.3706 54.7237 13.2367 54.3432 13.0747C54.1388 12.6237 54.5194 11.771 54.1036 11.3481ZM114.363 100.909C114.285 100.973 114.264 101.022 114.285 101.071C113.905 101.269 114.123 100.649 114.363 100.909ZM114.567 100.881C114.948 101.212 115.716 101.445 115.758 101.917C115.829 101.987 116.033 101.515 116.223 101.551C116.23 101.854 116.294 102.142 116.555 102.403C116.075 102.918 115.85 102.1 115.392 102.516C115.23 102.276 115.159 102.157 114.835 102.29C114.589 101.713 114.194 101.924 114.053 101.445C114.426 101.255 114.222 101.177 114.567 100.881Z" fill="white"/>
<path fill-rule="evenodd" clip-rule="evenodd" d="M42.5605 99.7042C42.5675 99.8451 42.4759 99.9579 42.342 100.049C42.2645 99.8663 42.3491 99.6267 42.5605 99.7042Z" fill="white"/>
<path fill-rule="evenodd" clip-rule="evenodd" d="M24.1958 84.0104C24.1606 84.1584 23.9915 84.5319 23.7871 84.1866C23.9281 84.0315 24.0619 84.0668 24.1958 84.0104Z" fill="white"/>
<path fill-rule="evenodd" clip-rule="evenodd" d="M23.3924 83.9399C23.477 84.1091 23.1528 84.1373 23.0753 84.25C22.9344 84.0457 23.2585 83.8906 23.3924 83.9399Z" fill="white"/>
<path fill-rule="evenodd" clip-rule="evenodd" d="M24.0548 87.8652C24.0548 88.0202 23.9209 88.2457 23.7377 88.1752C23.6602 88.0061 23.9773 87.9779 24.0548 87.8652Z" fill="white"/>
<path fill-rule="evenodd" clip-rule="evenodd" d="M21.215 85.2859C21.2221 85.5537 21.0529 85.758 20.7358 85.9131C20.6865 85.6312 21.0247 85.4832 21.215 85.2859Z" fill="white"/>
<path fill-rule="evenodd" clip-rule="evenodd" d="M30.2422 101.522C29.9462 101.762 29.5023 102.481 29.0513 102.319C29.5728 102.248 29.7701 101.607 30.2422 101.522Z" fill="white"/>
<path fill-rule="evenodd" clip-rule="evenodd" d="M24.6891 95.5746C24.5904 96.2582 23.5756 96.3075 23.2726 96.9277C22.9625 96.6387 23.9632 96.3639 23.9139 95.9904C24.0478 95.934 24.1817 95.934 24.3226 95.9199C24.4354 95.8001 24.4072 95.483 24.6891 95.5746Z" fill="white"/>
<path fill-rule="evenodd" clip-rule="evenodd" d="M19.2278 97.9988C19.3687 98.1679 19.418 98.3089 19.263 98.3793C19.1784 98.3441 19.1009 98.2596 19.0164 98.1327C19.0939 98.0904 19.1573 98.0411 19.2278 97.9988Z" fill="white"/>
<path fill-rule="evenodd" clip-rule="evenodd" d="M18.9388 101.748C18.8471 102.283 18.1495 102.819 17.5787 102.854C17.5575 102.932 17.6351 103.052 17.5223 103.101C17.3109 103.305 16.6978 103.559 17.2122 103.207C17.6914 102.53 18.3468 102.389 18.9388 101.748Z" fill="white"/>
<path fill-rule="evenodd" clip-rule="evenodd" d="M16.2254 98.478C16.2254 98.633 16.1268 98.7599 15.9577 98.8586C15.8731 98.6683 16.1127 98.4428 16.2254 98.478Z" fill="white"/>
<path fill-rule="evenodd" clip-rule="evenodd" d="M22.2156 107.794C22.272 107.992 21.9055 108.034 21.7998 108.175C21.828 108.013 21.9971 107.738 22.2156 107.794Z" fill="white"/>
<path fill-rule="evenodd" clip-rule="evenodd" d="M16.6768 99.9015C16.6768 100.162 16.3596 100.317 16.2962 100.564C15.965 100.388 16.5076 100.071 16.6768 99.9015Z" fill="white"/>
<path fill-rule="evenodd" clip-rule="evenodd" d="M15.7463 99.0981C15.7956 99.38 15.4574 99.528 15.2671 99.7253C15.2741 99.4646 15.5983 99.3166 15.7463 99.0981Z" fill="white"/>
<path fill-rule="evenodd" clip-rule="evenodd" d="M22.8993 109.774C23.0473 110.021 22.8288 110.141 22.7301 110.296C22.6033 110.056 22.8288 109.944 22.8993 109.774Z" fill="white"/>
<path fill-rule="evenodd" clip-rule="evenodd" d="M21.4897 108.28C21.4615 108.591 20.8555 108.943 20.5454 109.112C20.785 108.696 21.0669 108.513 21.4897 108.28Z" fill="white"/>
<path fill-rule="evenodd" clip-rule="evenodd" d="M15.1616 99.7958C15.1264 100.296 14.5696 100.324 14.323 100.451C14.4358 100.099 15.0277 100.183 15.1616 99.7958Z" fill="white"/>
<path fill-rule="evenodd" clip-rule="evenodd" d="M16.8035 103.481C16.7894 103.672 16.6344 103.813 16.5357 103.968C16.2891 103.686 16.6414 103.615 16.8035 103.481Z" fill="white"/>
<path fill-rule="evenodd" clip-rule="evenodd" d="M15.8522 103.094C15.8522 103.348 15.6901 103.348 15.4857 103.439C15.4153 103.263 15.7606 103.221 15.8522 103.094Z" fill="white"/>
<path fill-rule="evenodd" clip-rule="evenodd" d="M14.8091 102.572C14.8796 102.791 14.5273 103.101 14.3511 102.678C14.4427 102.572 14.5202 102.713 14.5977 102.819C14.7387 102.763 14.6189 102.615 14.8091 102.572Z" fill="white"/>
<path fill-rule="evenodd" clip-rule="evenodd" d="M17.5225 108.583C17.5718 108.125 18.3117 108.238 17.5225 108.583V108.583Z" fill="white"/>
<path fill-rule="evenodd" clip-rule="evenodd" d="M18.7837 111.508C18.678 111.797 18.4384 111.91 18.1565 112.03C18.2481 111.825 18.6357 111.522 18.7837 111.508Z" fill="white"/>
<path fill-rule="evenodd" clip-rule="evenodd" d="M18.9175 112.03C19.143 112.192 18.7272 112.466 18.6567 112.206C18.7484 112.142 18.8329 112.086 18.9175 112.03Z" fill="white"/>
<path fill-rule="evenodd" clip-rule="evenodd" d="M21.0528 115.99C21.081 116.18 20.9471 116.328 20.785 116.371C20.7005 116.18 20.9401 115.955 21.0528 115.99Z" fill="white"/>
<path fill-rule="evenodd" clip-rule="evenodd" d="M19.4039 116.681C19.2136 117.301 18.826 117.082 19.4039 116.681V116.681Z" fill="white"/>
<path fill-rule="evenodd" clip-rule="evenodd" d="M30.8906 108.612C30.8765 108.767 30.7849 108.894 30.8201 109.063C30.4607 108.901 30.355 109.352 30.052 109.373C30.0943 108.887 30.651 109.07 30.8906 108.612Z" fill="white"/>
<path fill-rule="evenodd" clip-rule="evenodd" d="M20.9823 106.786C20.8766 106.899 20.7779 106.737 20.6722 106.892C20.5806 106.786 20.637 106.737 20.5806 106.646C20.2917 106.772 20.2212 106.977 20.0028 107.132C19.9887 107.054 19.9816 106.984 19.9111 106.885C19.89 107.463 19.136 107.118 18.6638 107.717C18.9527 106.913 20.4256 106.293 20.8555 105.842C20.9753 106.166 20.3622 106.23 20.5242 106.568C20.6793 106.801 20.8484 106.413 20.9823 106.786Z" fill="white"/>
<path fill-rule="evenodd" clip-rule="evenodd" d="M15.7889 100.698C15.7396 100.747 15.81 100.789 15.8382 100.768C15.9369 100.937 15.6409 100.959 15.5775 100.944C15.5 100.705 16.2469 100.331 15.7889 100.698Z" fill="white"/>
<path fill-rule="evenodd" clip-rule="evenodd" d="M12.5751 104.165C12.5117 104.073 12.4483 103.982 12.3848 103.89C12.0748 104.137 11.5956 104.574 11.2009 104.475C11.4476 104.003 12.6033 103.897 12.561 103.263C12.6808 103.291 12.8006 103.2 12.9134 103.228C13.4983 102.15 14.802 101.917 15.5278 100.973C15.6406 102.002 13.9775 101.684 14.0409 102.777C13.9352 102.791 13.9845 102.706 14.0479 102.671C13.6392 102.981 12.7865 103.348 12.5751 104.165Z" fill="white"/>
<path fill-rule="evenodd" clip-rule="evenodd" d="M19.1995 112.65C19.2066 112.826 19.0868 112.96 19.0797 113.136C19.0233 113.157 18.9599 112.544 19.1995 112.65Z" fill="white"/>
<path fill-rule="evenodd" clip-rule="evenodd" d="M124.088 44.5821C124.313 44.42 124.384 43.9902 124.623 43.821C125.18 43.4194 125.871 43.3207 126.336 42.7851C126.745 42.3059 126.949 41.6083 127.407 41.1572C127.745 40.826 127.802 40.6287 127.992 40.3609C128.563 39.5717 129.267 39.2545 129.077 38.3173C129.267 37.4716 129.726 36.7246 129.874 35.9565C129.895 35.8367 130.078 35.7592 130.085 35.7099C130.465 33.7719 129.895 31.4746 130.712 29.7058C130.543 29.2195 130.198 28.5712 130.071 27.9017C130.014 27.5987 130.141 27.2816 130.05 26.9997C129.711 25.9426 128.683 25.0336 128.739 24.0117C128.612 23.7792 128.478 23.7862 128.344 23.6664C127.132 21.947 125.885 20.6644 125.06 19.2479C124.137 18.7264 123.566 17.768 122.756 17.2325C122.256 16.9013 121.6 16.711 121.065 16.4291C120.452 16.112 119.902 15.9147 119.324 15.5553C118.958 15.0408 118.563 15.1747 118.189 14.7871C117.569 14.7519 116.949 14.5264 116.329 14.5053C116.167 14.3573 115.998 14.3291 115.836 14.1247C114.363 13.8569 112.735 13.3848 111.34 13.871C111.213 13.9133 110.952 14.019 110.825 14.1106C109.987 14.7449 108.542 15.513 107.598 15.1465C107.4 15.2029 107.527 15.372 107.337 15.4214C107.006 15.1606 106.104 14.8717 105.723 15.1747C105.589 15.2804 105.674 15.8865 105.434 16.1825C105.075 16.6194 104.229 16.3234 103.898 16.7039C103.743 16.8801 103.835 17.4157 103.715 17.6412C103.384 18.2332 102.263 18.7969 101.742 18.959C101.333 19.0858 100.973 18.8462 100.776 19.0929C100.593 19.3184 100.685 19.7976 101.086 20.312C101.277 21.9399 98.9651 22.2429 98.3379 23.4691C97.309 23.5819 97.1047 24.7728 96.3506 25.2027C96.1956 25.2873 95.9278 25.2661 95.7869 25.3789C95.5543 25.5551 95.3922 26.0131 95.1456 26.3161C94.7228 26.8376 94.2365 27.1406 93.9335 27.6339C92.7707 27.4366 92.8482 28.5782 92.2633 28.9517C92.0449 29.0927 91.6784 29.0222 91.4459 29.1913C91.2486 29.3323 91.1992 29.6705 90.9667 29.8115C90.7412 29.9524 90.3536 29.896 90.1492 30.0511C89.9942 30.1638 89.966 30.3893 89.8321 30.4669C89.6489 30.5655 89.4234 30.4809 89.2683 30.636C89.1063 30.8051 89.1063 31.1997 88.9371 31.3618C88.324 31.9679 87.3797 32.2216 87.0978 33.2011C85.6109 33.6169 85.0824 35.0474 83.3629 35.5901C83.1163 35.9777 82.933 36.2595 82.475 36.3864C82.4327 36.4921 82.5525 36.6612 82.4116 36.7317C81.5448 37.0488 81.1995 38.1763 80.2692 38.4653C80.3045 38.5639 80.3256 38.6626 80.3115 38.7401C79.043 39.1559 77.7112 40.0438 77.1897 41.0233C76.3158 41.1291 75.8719 42.0522 75.1037 42.616C74.7443 42.8838 74.2511 42.9542 73.9621 43.2714C73.4054 43.8986 72.4047 44.3496 71.8269 44.8992C71.6577 45.0613 71.6084 45.3925 71.4463 45.5617C71.1503 45.8647 70.643 45.9281 70.354 46.2875C69.2406 47.6758 67.4506 48.5637 66.2385 49.4446C65.865 49.7194 65.703 50.1704 65.3365 50.551C64.7375 51.1852 63.7439 51.3402 63.1097 51.9392C62.9476 52.0872 62.8771 52.348 62.7361 52.496C62.3697 52.8695 61.8764 53.0315 61.4395 53.3628C60.3754 54.1732 59.565 55.343 58.3106 55.7517C57.3311 57.14 55.3297 58.3662 53.871 59.5289C53.8005 60.1491 53.2438 60.0575 52.9266 60.3605C51.9541 61.2907 50.8689 62.7142 49.53 63.2357C45.2383 67.3371 40.0658 70.6281 35.8868 74.7788C35.316 74.7647 34.8721 75.3566 34.6888 75.7865C34.4915 75.6597 34.2801 75.8288 34.0758 75.8922C33.815 76.7731 32.8073 76.9422 32.1378 77.5906C32.2717 78.1755 31.5811 78.1614 31.5388 78.704C31.2428 78.549 31.5529 78.3798 31.2499 78.3939C31.3485 79.5496 29.4458 80.353 28.868 81.1C28.9173 81.0648 29.016 81.1775 28.9666 81.2409C28.6425 81.1705 28.8468 81.6285 28.6425 81.7624C27.381 82.8124 27.0005 84.2923 26.0773 85.4057C25.8518 85.3916 25.2246 85.3282 25.3092 85.7158C25.5488 85.6172 25.7955 85.4057 26.0139 85.7511C25.5911 85.8849 25.2528 86.3641 25.2176 86.794C24.8159 87.1323 24.4706 87.1041 24.2733 87.6256C24.1746 87.689 24.6116 87.9075 24.4072 88.0413C23.6884 88.288 23.6038 88.8024 22.9555 89.0138C23.026 89.4437 22.4763 89.9793 22.1592 89.9511C22.0887 90.2118 22.5397 90.0779 22.4481 90.2612C22.0394 90.7051 21.687 91.1632 21.0951 91.2689C21.0951 91.4944 21.1655 91.7481 21.0175 91.9313C20.9118 92.0441 20.8273 91.5931 20.7216 91.8256C20.6793 92.1286 21.081 92.0441 21.2078 92.3119C21.0457 92.5937 21.2149 92.7276 21.236 93.0095C20.7639 93.0659 20.8132 93.6156 20.5947 93.9468C20.3692 94.2921 19.9323 94.426 19.7068 94.7431C19.5095 95.0179 19.5729 95.335 19.2699 95.5394C19.0303 95.7085 18.6497 95.6028 18.396 95.8142C18.2974 95.9693 18.6779 96.0045 18.4877 96.1596C17.6209 96.9136 16.747 97.6606 16.3735 98.5908C17.043 97.2941 18.2199 97.3153 18.7907 96.1666C19.1501 96.371 19.0655 95.6733 19.5095 95.9904C19.4461 95.7649 19.143 95.8002 19.3685 95.6804C19.4531 95.6522 19.5377 95.7156 19.6222 95.6099C19.7561 96.0679 19.9534 95.9341 20.2142 96.1314C20.9823 95.5465 21.4756 94.9334 22.1521 94.433C22.2155 94.2569 21.9125 94.285 22.0112 94.123C22.2226 93.8763 22.4622 93.7847 22.6947 93.4605C22.9837 93.6649 23.2867 93.6508 23.4276 94.0877C22.4904 94.722 21.6377 96.1596 20.5877 96.9982C20.2706 97.2519 19.7279 97.2237 19.8477 97.7945C20.2424 97.3082 20.9823 97.5055 21.4404 97.2378C22.0323 96.8995 22.3072 96.0398 22.9132 95.7438C23.0823 95.6592 23.2374 95.7438 23.3713 95.6381C23.477 95.5606 23.5122 95.2294 23.6461 95.1518C23.787 95.0743 23.8998 95.2153 24.0055 95.1166C24.2099 94.9193 24.224 94.5669 24.4847 94.3908C24.9216 94.0948 25.5277 94.0525 25.9294 93.6297C26.1055 93.6931 26.2817 94.0243 26.2112 94.1511C25.6475 94.5317 25.5629 94.6162 25.0132 95.0532C25.0978 95.0391 25.1824 95.0743 25.2599 95.1941C25.0696 95.2998 24.9498 95.2575 24.9428 95.5042C25.3515 95.1871 25.6968 95.7438 25.732 96.0961C24.6186 96.7586 23.5122 97.9213 22.5115 98.3512C22.5256 98.5626 22.6031 98.8022 22.4904 98.9784C21.6447 99.8522 20.4326 100.458 19.5165 101.367C20.9964 100.923 22.0605 99.7888 23.3149 98.6331C23.4135 98.6613 23.5052 98.8797 23.6179 98.7388C24.0619 98.1257 24.7877 97.6817 25.1894 97.28C25.6052 97.428 26.021 97.5901 26.4367 97.7663C27.6982 96.4767 29.6291 96.9277 31.0103 95.934C31.1512 96.1455 31.3063 96.1314 31.4542 96.2441C31.4683 96.4978 31.5529 96.7727 31.5318 97.0052C31.3133 97.1814 31.1653 97.4633 30.8552 97.4562C30.1364 98.9079 28.1703 99.662 26.9723 101.064C27.0428 101.536 27.367 101.699 27.7052 101.896C28.5438 101.593 28.8398 100.656 29.8828 100.543C30.7284 101.163 30.8623 101.924 30.3197 102.382C29.4317 103.136 27.7404 104.235 27.0498 104.567C24.6256 107.047 21.7293 108.83 19.1571 111.254C20.8484 110.268 21.9971 108.788 23.632 108.069C23.5193 107.921 23.5193 107.822 23.6461 107.759C25.0978 106.836 26.6341 105.715 27.6629 104.567C28.5297 104.694 29.1005 103.397 29.9814 103.531C30.4113 104.405 30.2422 105.067 29.8546 105.645C30.369 105.208 31.0596 105.095 31.5529 104.813C31.9546 104.581 32.4408 103.876 32.7509 103.911C32.8284 103.918 32.8566 104.144 32.9482 104.087C32.7861 104.186 33.1878 103.848 33.216 103.813C33.357 103.573 33.2794 103.545 33.5331 103.397C33.8643 103.207 33.8714 103.221 34.1956 103.263C35.3583 102.608 36.2322 101.621 37.4161 101.008C37.5359 100.945 37.7543 100.768 37.7825 100.768C37.9164 100.747 37.9305 100.945 38.0855 100.874C38.1701 100.832 38.0221 100.698 38.1419 100.634C38.607 100.395 39.1355 100.12 39.5372 99.8029C40.552 99.0066 41.9262 98.3019 42.7577 97.6535C42.9832 97.569 42.9057 97.9848 43.1594 97.7945C44.752 96.8995 46.4011 95.9129 48.0289 94.8488C48.1628 94.7854 48.2897 95.1589 48.4306 94.9897C48.6843 94.884 48.3883 94.5881 48.5997 94.4683C48.783 94.4683 48.9732 94.4894 49.1494 94.6092C51.1367 93.5662 52.7927 91.9454 54.5686 90.4867C56.2247 89.1266 57.9653 87.8863 59.572 86.639C60.8334 85.6594 61.8694 84.4755 63.166 83.8342C64.5543 82.4812 65.9144 81.5228 67.3449 80.4376C68.3738 79.6553 69.6493 78.9788 70.4175 78.1825C70.5513 78.0486 70.6148 77.7597 70.7909 77.6258C71.0587 77.4285 71.4957 77.4708 71.7634 77.2805C72.4893 76.766 73.0249 75.9486 73.7578 75.4412C74.5752 74.8704 75.3856 74.363 76.196 73.8133C76.6541 73.5033 76.9219 72.9747 77.3518 72.6365C77.6407 72.411 78.0776 72.3757 78.3806 72.1502C79.2263 71.523 79.8817 70.5928 80.7343 70.0713C81.876 69.3737 83.2008 68.8733 84.0606 67.7529C85.4066 67.0622 86.8864 66.0122 87.9576 65.0538C89.2895 64.9199 89.8673 63.6515 91.0231 63.0102C91.1429 62.9397 91.2979 62.9961 91.4318 62.9397C93.3345 62.1857 94.5959 60.1632 96.1604 59.5783C96.3929 58.8665 97.0976 58.9581 97.6121 58.7115C98.1688 58.4437 98.4507 57.8799 98.9228 57.5346C99.0778 57.4219 99.3174 57.4571 99.4866 57.3584C100.001 57.0695 100.304 56.4987 100.797 56.0759C101.537 55.4416 102.799 55.4275 103.44 54.4128C104.321 54.1661 105.568 53.7151 106.132 52.8201C107.851 52.3621 108.782 50.7835 110.339 50.0154C110.861 49.7547 111.551 49.8181 111.791 49.1486C112.545 49.1627 112.975 48.5285 113.602 48.1479C114.222 47.7674 114.99 47.5419 115.66 47.1754C116.618 46.661 117.499 45.5828 118.697 45.8576C120.12 47.2036 119.049 44.4905 119.972 44.3002C120.571 44.3496 120.839 44.8217 121.403 45.2727C121.903 45.2657 122.108 44.8992 122.34 44.5469C122.798 44.4271 123.58 44.9345 124.088 44.5821ZM23.3642 91.6847C23.3149 91.6001 23.2656 91.5719 23.2162 91.579C23.0823 91.1702 23.6672 91.4803 23.3642 91.6847ZM23.3501 91.889C22.9484 92.2203 22.582 92.9531 22.0957 92.932C22.0112 92.9884 22.4481 93.2703 22.3776 93.4535C22.0746 93.4112 21.7716 93.4394 21.4615 93.6578C21.0316 93.1011 21.8914 92.9954 21.5531 92.4739C21.8209 92.3471 21.9619 92.2907 21.8773 91.9525C22.4974 91.7904 22.3565 91.3676 22.8639 91.2971C23.0048 91.6988 23.1176 91.5015 23.3501 91.889Z" fill="white"/>
</svg>
