<svg width="81" height="71" viewBox="0 0 81 71" fill="none" xmlns="http://www.w3.org/2000/svg">
<path fill-rule="evenodd" clip-rule="evenodd" d="M17.3874 3.74223C17.5059 3.77951 17.6229 3.8163 17.7084 3.88576C17.932 4.06632 17.9844 4.33717 18.0336 4.59141C18.0669 4.76316 18.0987 4.92732 18.1808 5.05095C18.1978 5.05841 18.2148 5.06581 18.2318 5.07321C18.5039 5.19145 18.771 5.30757 18.8975 5.61924C18.8559 5.74321 18.8056 5.84911 18.7588 5.94737C18.6499 6.1764 18.5608 6.36382 18.6491 6.64134C18.809 6.90289 19.1853 6.87238 19.5133 6.84578C19.9287 6.81209 20.2665 6.7847 19.9889 7.36499C20.088 7.94113 20.5746 8.36455 21.0508 8.77892C21.2404 8.94382 21.4282 9.10728 21.5894 9.27837C21.7703 9.46931 21.9371 9.67454 22.1021 9.87767C22.301 10.1225 22.4974 10.3643 22.7133 10.5744C22.8343 10.6946 22.9653 10.801 23.0934 10.9052C23.3835 11.1409 23.6592 11.365 23.7722 11.711C24.1065 11.7913 24.2664 12.0408 24.4306 12.2969C24.5003 12.4057 24.5709 12.5157 24.6559 12.6145C25.0118 13.0251 25.4296 13.3578 25.844 13.6877C26.4157 14.1429 26.9809 14.5928 27.3681 15.2352C28.0685 15.5582 28.6061 16.3595 28.9482 16.9278C29.4186 17.1528 29.7043 17.5453 29.9783 17.9217C30.1573 18.1677 30.3314 18.4067 30.5486 18.5877C30.7003 18.7146 30.8611 18.8184 31.0179 18.9196C31.24 19.063 31.4543 19.2014 31.6237 19.3931C31.6703 19.4437 31.7002 19.5063 31.7297 19.5682C31.7623 19.6364 31.7944 19.7036 31.8477 19.7529C31.9769 19.8725 32.1235 19.9706 32.2707 20.0692C32.4808 20.2099 32.6925 20.3516 32.8577 20.5583C32.9334 20.6548 32.9935 20.7634 33.0534 20.8717C33.1964 21.1302 33.3382 21.3864 33.6884 21.47C34.0133 21.9513 34.5337 22.3712 35.0797 22.8119C35.6702 23.2884 36.2906 23.7891 36.7264 24.4177C36.7556 24.4587 36.7699 24.5024 36.7839 24.5454C36.7994 24.5925 36.8145 24.6388 36.8486 24.6794C37.097 24.9644 37.3914 25.1904 37.6751 25.4082C37.7496 25.4653 37.8233 25.5219 37.8952 25.5789C37.9848 25.6484 38.0663 25.7179 38.1477 25.7915L38.2658 25.9018L38.4206 26.0613C38.6812 26.3352 38.9174 26.6255 39.1088 26.9444C39.6363 27.4042 40.2177 27.9279 40.7997 28.4756C41.3818 27.9279 41.9632 27.4042 42.4907 26.9444C42.6821 26.6255 42.9183 26.3352 43.1789 26.0613L43.3337 25.9018L43.4518 25.7915C43.5332 25.7179 43.6146 25.6484 43.7042 25.5789C43.7762 25.5219 43.8499 25.4653 43.9243 25.4082C44.208 25.1904 44.5024 24.9644 44.7508 24.6794C44.7849 24.6388 44.8001 24.5925 44.8155 24.5454C44.8296 24.5024 44.8439 24.4587 44.873 24.4177C45.3088 23.7891 45.9293 23.2884 46.5197 22.8119C47.0658 22.3712 47.5862 21.9513 47.911 21.47C48.2612 21.3864 48.403 21.1302 48.5461 20.8717C48.606 20.7634 48.6661 20.6548 48.7418 20.5583C48.907 20.3516 49.1186 20.2099 49.3287 20.0692C49.476 19.9706 49.6225 19.8725 49.7517 19.7529C49.8051 19.7036 49.8372 19.6364 49.8697 19.5682C49.8993 19.5063 49.9292 19.4437 49.9757 19.3931C50.1452 19.2014 50.3595 19.063 50.5816 18.9196C50.7384 18.8184 50.8991 18.7146 51.0508 18.5877C51.2681 18.4067 51.4421 18.1677 51.6211 17.9217C51.8951 17.5453 52.1808 17.1528 52.6513 16.9278C52.9934 16.3595 53.5309 15.5582 54.2314 15.2352C54.6186 14.5928 55.1837 14.1429 55.7554 13.6877C56.1698 13.3578 56.5876 13.0251 56.9436 12.6145C57.0286 12.5157 57.0991 12.4057 57.1689 12.2969C57.333 12.0408 57.4929 11.7913 57.8273 11.711C57.9403 11.365 58.2159 11.1409 58.5061 10.9052C58.6342 10.801 58.7651 10.6946 58.8861 10.5744C59.102 10.3643 59.2985 10.1225 59.4974 9.87767C59.6624 9.67454 59.8291 9.46931 60.0101 9.27837C60.1712 9.10728 60.3591 8.94382 60.5486 8.77892C61.0249 8.36456 61.5115 7.94113 61.6105 7.36499C61.3329 6.7847 61.6708 6.81209 62.0862 6.84578C62.4141 6.87238 62.7905 6.90289 62.9504 6.64134C63.0387 6.36382 62.9496 6.1764 62.8406 5.94736C62.7939 5.84911 62.7435 5.7432 62.7019 5.61924C62.8284 5.30757 63.0956 5.19145 63.3676 5.07321C63.3846 5.06582 63.4017 5.05841 63.4187 5.05095C63.5008 4.92732 63.5326 4.76315 63.5658 4.5914C63.615 4.33717 63.6675 4.06632 63.8911 3.88576C63.9765 3.8163 64.0935 3.77951 64.212 3.74223C64.3307 3.7049 64.451 3.66708 64.5427 3.59548C64.7148 3.46091 64.86 3.30676 65.0042 3.15361C65.215 2.92988 65.4238 2.70827 65.7114 2.55293C65.9132 2.44592 66.1372 2.37463 66.3631 2.30275C66.6205 2.22085 66.8803 2.13818 67.1123 2.001C67.3304 1.87236 67.4664 1.82434 67.6033 1.77599C67.671 1.75211 67.7388 1.72815 67.8169 1.69437C68.0146 1.6108 68.1896 1.51571 68.3518 1.4276C68.7609 1.20534 69.0882 1.02754 69.4906 1.19149C69.7944 1.17946 70.105 1.12213 70.4071 1.06638C70.7206 1.00852 71.0249 0.95236 71.3028 0.950278C71.3557 0.950278 71.4179 0.909636 71.4654 0.878613C71.4948 0.859464 71.5185 0.84398 71.5309 0.84398C72.1359 0.840407 72.7128 0.96171 73.2999 1.08513C73.3846 1.10295 73.4696 1.12081 73.5549 1.13834C74.235 1.28144 74.911 1.39183 75.6196 1.26917C75.7023 1.32943 75.7885 1.40328 75.8803 1.48197C76.0688 1.64353 76.2812 1.82547 76.5359 1.95194C76.6134 1.99181 76.7085 2.00611 76.8024 2.02023C76.9107 2.03652 77.0174 2.05256 77.0938 2.1073C77.3145 2.26223 77.4797 2.48437 77.6419 2.70235C77.8777 3.01931 78.1069 3.32747 78.4906 3.40741C78.5562 3.48375 78.5576 3.54483 78.5589 3.60484C78.5597 3.63804 78.5604 3.67092 78.5721 3.70587C78.8366 4.13556 79.0559 4.55476 79.2632 4.9513C79.557 5.51307 79.827 6.02935 80.1684 6.46554C80.1819 6.82067 80.3073 7.13625 80.4297 7.44423C80.53 7.69645 80.6282 7.94357 80.6612 8.20311C80.6897 8.41324 80.6738 8.64289 80.6581 8.87007C80.6469 9.03187 80.6357 9.19242 80.6408 9.34378C80.6454 9.49997 80.6426 9.64755 80.6398 9.7919C80.6351 10.033 80.6306 10.265 80.6612 10.5131C80.7714 10.6847 80.7636 10.8227 80.7558 10.9601C80.7495 11.0714 80.7432 11.1822 80.7997 11.3103C80.7254 11.4945 80.6805 11.6839 80.6351 11.8749C80.5909 12.0612 80.5463 12.2489 80.4739 12.4346C80.4895 12.4816 80.4961 12.5256 80.5027 12.5693C80.5133 12.6398 80.5239 12.7096 80.5716 12.7903C80.5341 12.9495 80.4994 13.112 80.4645 13.2756C80.2984 14.0537 80.1267 14.8581 79.6187 15.456C79.6046 15.4711 79.5868 15.4915 79.5666 15.5145C79.5053 15.5848 79.4224 15.6796 79.358 15.7258C78.792 16.1346 78.006 16.8869 78.0101 17.492C77.9714 17.5451 77.9347 17.5472 77.8981 17.5492C77.8614 17.5513 77.8248 17.5533 77.7861 17.6065C77.8635 17.8354 77.839 18.416 77.5784 18.6081C77.54 18.6362 77.4545 18.6289 77.3513 18.6201C77.2138 18.6084 77.0449 18.5941 76.9146 18.6572C76.7395 18.7419 76.653 18.9297 76.5689 19.112C76.4906 19.2818 76.4145 19.4469 76.2712 19.5198C76.2005 19.5564 76.0826 19.5398 75.963 19.523C75.855 19.5078 75.7457 19.4925 75.6684 19.5157C75.2408 19.6302 74.6626 20.2803 74.4549 20.5787C74.3831 20.6831 74.3564 20.7891 74.3326 20.8834C74.3024 21.0033 74.2769 21.1044 74.1698 21.1593C73.9988 21.2451 73.7259 21.1429 73.4979 20.8404C72.9277 20.6618 72.461 21.098 71.9897 21.5384C71.6733 21.8342 71.3548 22.1318 71.0015 22.2468C70.8387 22.6217 70.5029 22.7805 70.1693 22.9382C69.9354 23.0487 69.7026 23.1588 69.5313 23.3425C69.4951 23.3825 69.467 23.4386 69.4383 23.4958C69.4024 23.5673 69.3657 23.6405 69.3114 23.6859C69.2214 23.7624 69.083 23.8165 68.9369 23.8737C68.8253 23.9173 68.7092 23.9627 68.6069 24.0212C68.4306 24.1203 68.278 24.2293 68.1319 24.3337C67.9404 24.4706 67.76 24.5995 67.5522 24.6876C67.4842 25.168 67.1743 25.286 66.8697 25.402C66.6999 25.4667 66.5317 25.5307 66.4078 25.6565C66.3461 25.7185 66.3072 25.8043 66.2674 25.8923C66.2231 25.99 66.1776 26.0903 66.0983 26.1635C66.0379 26.2202 65.9561 26.2517 65.8724 26.2838C65.7812 26.3189 65.6879 26.3548 65.6178 26.4252C65.5519 26.4913 65.5085 26.585 65.4655 26.6778C65.4209 26.7742 65.3767 26.8696 65.3083 26.9321C65.2577 26.9768 65.1971 27.0003 65.1394 27.0227C65.0809 27.0453 65.0255 27.0668 64.9866 27.1079C64.9442 27.1558 64.9217 27.2106 64.8995 27.2647C64.8706 27.3352 64.8422 27.4045 64.7707 27.4554C64.7045 27.5018 64.6106 27.5193 64.5163 27.5369C64.4192 27.5551 64.3217 27.5733 64.2535 27.6231C64.0879 27.7416 63.9399 27.887 63.7916 28.0327C63.4951 28.324 63.1974 28.6165 62.7549 28.6983C62.4897 29.1493 62.1198 29.4438 61.7324 29.7523C61.3225 30.0787 60.8931 30.4206 60.5476 30.9796C60.2585 31.1186 60.0467 31.2209 59.8798 31.5152C59.8495 31.5248 59.8192 31.5175 59.7889 31.5102C59.7418 31.4989 59.6947 31.4875 59.6477 31.5398C59.4709 31.802 59.2003 31.9787 58.9273 32.1569C58.6343 32.3482 58.3386 32.5413 58.1531 32.844C58.0961 32.8194 58.0431 32.799 57.9861 32.8031C57.4852 33.6044 56.6707 34.4303 55.9499 34.7287C55.7962 35.0985 55.4615 35.3333 55.1073 35.5817C54.9171 35.715 54.7213 35.8523 54.5449 36.0166C54.4438 36.1111 54.3598 36.2244 54.2767 36.3366C54.1657 36.4863 54.0563 36.6339 53.9097 36.732C53.8445 36.7729 53.7834 36.822 53.7223 36.871L53.6775 36.9078L53.6653 36.916L53.6409 36.9324C53.6083 36.9569 53.5798 36.9896 53.5513 37.0264C53.5456 37.0334 53.54 37.0405 53.5344 37.0475C53.4875 37.1062 53.4412 37.1644 53.3721 37.1899C53.3508 37.1977 53.3067 37.1898 53.2605 37.1816C53.2093 37.1724 53.1556 37.1628 53.1278 37.1736C53.0851 37.1885 53.0745 37.2246 53.0638 37.2614C53.0509 37.3054 53.0377 37.3505 52.9689 37.3616C52.6055 37.4323 52.4445 37.6448 52.3054 37.8285C52.2513 37.9 52.2004 37.9672 52.1422 38.0199C52.1061 38.0539 52.0124 38.0753 51.9098 38.0988C51.8272 38.1177 51.7388 38.1379 51.6698 38.1671C51.5325 38.2274 51.5252 38.3002 51.518 38.3718C51.5116 38.436 51.5053 38.4992 51.4051 38.5514C51.3762 38.5659 51.3178 38.5794 51.2594 38.5929C51.2027 38.606 51.1461 38.6191 51.116 38.6331C51.023 38.6762 51.004 38.7193 50.9846 38.7632C50.9709 38.7943 50.957 38.8258 50.9164 38.858C50.9074 38.8658 50.8963 38.8728 50.8848 38.88C50.8602 38.8954 50.8339 38.9119 50.8228 38.9398C50.8024 38.9766 50.7943 39.0134 50.7861 39.0502C50.7739 39.1197 50.7739 39.1851 50.7902 39.2464C50.8228 39.365 50.9205 39.4713 51.1852 39.5285C51.0553 39.7738 51.3764 40.005 51.6704 40.2166C51.7635 40.2836 51.8539 40.3487 51.9264 40.4116C51.7987 40.5398 51.8934 40.5563 51.9881 40.5729C52.0383 40.5817 52.0886 40.5905 52.1056 40.616C52.1364 40.6609 52.167 40.7148 52.1998 40.7728C52.3316 41.0056 52.5003 41.3037 52.8753 41.3397C52.9934 41.4828 53.1278 41.6218 53.2744 41.7608L53.3884 41.863C53.3982 41.8712 53.4048 41.8774 53.4114 41.8838C53.4214 41.8933 53.4316 41.9031 53.4535 41.9202L53.6205 42.0347L54.2884 42.4967C55.2041 43.1055 56.1198 43.7184 57.0355 44.3312L57.0373 44.3324C57.9698 44.9538 58.9065 45.5916 59.8594 46.2989C60.3359 46.6546 60.8124 47.0226 61.3092 47.4396L61.6838 47.7626L61.8467 47.9057L61.9811 48.0283L62.5146 48.5312C62.8771 48.5475 63.1825 48.9278 63.325 49.1935C63.4158 49.1419 63.5178 49.1873 63.6193 49.2325C63.6545 49.2481 63.6896 49.2637 63.7241 49.2753C63.8599 49.6291 64.1797 49.8099 64.5174 50.0007C64.7064 50.1075 64.9011 50.2175 65.0721 50.3628C65.0501 50.5525 65.168 50.6422 65.2922 50.7367C65.3981 50.8173 65.5085 50.9013 65.5404 51.0537C65.6301 51.0066 65.6218 50.9565 65.6157 50.9196C65.6096 50.883 65.6057 50.8595 65.7033 50.8657C65.7253 51.3412 66.3283 51.7288 66.8575 52.069C67.1109 52.2319 67.3474 52.384 67.4951 52.5296C67.4585 52.5092 67.4056 52.5787 67.4463 52.6155C67.5612 52.5901 67.5827 52.669 67.6068 52.7572C67.6253 52.8252 67.6454 52.8988 67.711 52.9344C68.2523 53.3006 68.6209 53.7583 68.9818 54.2065C69.2454 54.5339 69.5048 54.8561 69.8246 55.134C69.8337 55.1332 69.8439 55.1323 69.855 55.1313C70.0206 55.1162 70.3782 55.0837 70.3743 55.3098C70.3468 55.3005 70.3188 55.2896 70.2908 55.2787C70.1451 55.2218 69.9989 55.1648 69.9101 55.3466C70.2074 55.4242 70.4924 55.7063 70.5739 55.968C70.6827 56.0361 70.7808 56.0776 70.8709 56.1158C71.0405 56.1876 71.1821 56.2476 71.3151 56.4504C71.3449 56.4654 71.3193 56.4981 71.289 56.5368C71.2449 56.593 71.1908 56.662 71.2825 56.708C71.5406 56.7759 71.7019 56.8882 71.8575 56.9967C72.0112 57.1038 72.1595 57.2071 72.3902 57.2599C72.4024 57.5216 72.8585 57.8364 73.0621 57.8037C73.1104 57.8896 73.0381 57.909 72.9751 57.926C72.9212 57.9405 72.8742 57.9531 72.9155 58.004C72.9386 58.0219 72.9615 58.0397 72.9843 58.0575C73.2962 58.3004 73.5913 58.5301 73.9784 58.5682C73.9876 58.6031 73.994 58.6393 74.0004 58.6755C74.0194 58.7836 74.0386 58.8923 74.1331 58.9689C74.1738 58.9985 74.1926 58.9576 74.2113 58.9169C74.2339 58.8679 74.2563 58.8193 74.3164 58.8953C74.3593 58.9972 74.2922 59.0314 74.2161 59.0701C74.1549 59.1012 74.088 59.1353 74.068 59.2101C74.1672 59.3205 74.1622 59.3972 74.1566 59.4846C74.1536 59.5299 74.1505 59.5781 74.1617 59.6353C74.3738 59.6461 74.4709 59.7956 74.5719 59.9512C74.6241 60.0316 74.6774 60.1136 74.7481 60.1791C74.8582 60.2832 74.9958 60.3498 75.1317 60.4156C75.2573 60.4763 75.3814 60.5364 75.4811 60.6247C75.5538 60.6894 75.5991 60.7602 75.6429 60.8288C75.7071 60.9293 75.7684 61.0252 75.9087 61.0908C75.9982 61.1328 76.0975 61.1382 76.199 61.1438C76.3147 61.1501 76.4334 61.1566 76.544 61.2175C76.5875 61.2593 76.5573 61.2896 76.5279 61.319C76.4939 61.3531 76.4611 61.386 76.544 61.4342L76.5732 61.4512C77.2802 61.8625 77.9832 62.2715 78.401 62.8038C78.0521 62.4223 77.6757 62.2523 77.3128 62.0885C76.9641 61.931 76.6278 61.7791 76.3404 61.4506C76.2436 61.5172 76.1778 61.4597 76.1108 61.401C76.034 61.3339 75.9556 61.2653 75.8273 61.381C75.8291 61.3175 75.8744 61.2838 75.9063 61.2602C75.9441 61.2321 75.963 61.2181 75.868 61.1848C75.8466 61.1805 75.8271 61.1827 75.8076 61.185C75.7715 61.1891 75.735 61.1934 75.6847 61.1562C75.6767 61.3454 75.6063 61.3756 75.5183 61.4133C75.4732 61.4326 75.4235 61.4539 75.3752 61.4996C75.0572 61.3316 74.7876 61.1581 74.5276 60.991C74.2816 60.8327 74.0443 60.6801 73.7829 60.5429C73.7465 60.4901 73.7795 60.4655 73.8109 60.4422C73.8426 60.4185 73.8728 60.396 73.8277 60.3467C73.7492 60.2854 73.6722 60.2421 73.5934 60.1978C73.4884 60.1388 73.3804 60.078 73.2617 59.9705C73.2137 60.0113 73.1612 60.0401 73.1106 60.0679C72.9937 60.1322 72.8865 60.1911 72.8666 60.3794C73.2403 60.5628 73.6373 60.8705 74.05 61.1904C74.4468 61.4981 74.8583 61.817 75.2775 62.0475C75.3568 62.091 75.4455 62.1171 75.5311 62.1423C75.7267 62.1999 75.9055 62.2526 75.9169 62.4972C75.7099 62.3329 75.4618 62.32 75.2203 62.3073C75.053 62.2986 74.889 62.29 74.744 62.2314C74.5204 62.142 74.3265 61.9754 74.134 61.8098C73.9304 61.6347 73.7282 61.4609 73.4938 61.381C73.4324 61.3598 73.38 61.3605 73.3307 61.361C73.2754 61.3617 73.224 61.3622 73.168 61.332C73.1284 61.3112 73.0906 61.2563 73.0513 61.1992C73.0057 61.1329 72.958 61.0637 72.9033 61.0417C72.8486 61.0193 72.808 61.0304 72.7705 61.0405C72.7326 61.0508 72.6978 61.0602 72.6549 61.0335C72.5788 60.9826 72.5229 60.9116 72.4664 60.8397C72.3957 60.7498 72.3241 60.6588 72.211 60.6043C72.0722 60.5362 71.9213 60.4938 71.7682 60.4507C71.5439 60.3876 71.3147 60.3232 71.1114 60.175C71.0015 60.2159 70.9323 60.4244 71.0015 60.502C71.3411 60.671 71.4614 60.7394 71.698 60.8739C71.7706 60.9152 71.8542 60.9627 71.9585 61.0213C71.8974 61.0131 71.8485 61.0376 71.8119 61.1153C71.8502 61.1303 71.8837 61.1393 71.9132 61.1473C71.9964 61.1699 72.0465 61.1834 72.0766 61.2952C71.7467 61.1153 71.6001 61.4669 71.6368 61.6836C72.006 61.8402 72.3899 62.0538 72.7676 62.264C73.2772 62.5476 73.7755 62.8248 74.2105 62.9469C74.2177 62.9798 74.2223 63.014 74.2269 63.0484C74.2406 63.1505 74.2545 63.2537 74.3368 63.3271C74.7129 63.5845 75.1421 63.7929 75.5781 64.0045C75.987 64.203 76.4019 64.4044 76.7843 64.6518C75.8121 64.4727 74.9701 63.9406 74.0459 63.3565C73.9364 63.2873 73.8258 63.2174 73.7137 63.1472C73.6908 63.1544 73.6729 63.1763 73.6551 63.198C73.6223 63.2381 73.5897 63.2779 73.5264 63.2249C73.2641 62.9982 72.939 62.8146 72.6491 62.6509C72.4843 62.5579 72.3309 62.4713 72.2069 62.3868C71.9503 62.4931 71.6897 62.6035 71.4372 62.7261C70.8553 62.3183 70.2247 62.2231 69.5929 62.1277C69.0531 62.0462 68.5124 61.9646 68.0001 61.6877C67.9589 61.7731 67.8997 61.8011 67.8411 61.8289C67.8072 61.845 67.7735 61.861 67.7436 61.888C67.757 61.9522 67.7622 62.0193 67.7673 62.0862C67.7745 62.1812 67.7817 62.2759 67.8128 62.3623C67.8637 62.3925 67.9123 62.4279 67.9605 62.4631C68.0822 62.5519 68.2016 62.6391 68.3503 62.6362C68.7785 63.1592 69.4638 63.5218 70.1724 63.8967C70.6768 64.1636 71.1931 64.4368 71.6368 64.7785C71.6669 65.0471 71.5019 65.1617 71.3254 65.2841C71.3111 65.2941 71.2968 65.304 71.2825 65.3141C71.0094 65.2421 70.7868 65.0967 70.5628 64.9506C70.2656 64.7566 69.9662 64.5612 69.5436 64.5332C69.063 64.9339 69.1037 65.4122 69.5558 65.6861C70.3092 66.1318 71.6734 66.7655 72.215 66.9372C73.4404 67.7675 74.7318 68.4341 76.0288 69.1035C76.9862 69.5977 77.9465 70.0934 78.8856 70.6576C78.2737 70.428 77.7178 70.1266 77.1749 69.8324C76.5292 69.4823 75.9019 69.1423 75.2205 68.9446C75.2693 68.8506 75.249 68.7852 75.1553 68.7524C73.9865 68.2578 72.716 67.6281 71.7956 66.9536C71.5062 67.0088 71.2046 66.8398 70.9015 66.67C70.5989 66.5005 70.2947 66.3301 69.9997 66.3812C69.8531 66.9331 70.0893 67.3379 70.4721 67.6895C70.203 67.5279 69.9074 67.4474 69.6268 67.3709C69.453 67.3235 69.2849 67.2777 69.1322 67.2152C68.9955 67.1603 68.8352 67.0521 68.6791 66.9469C68.4633 66.8013 68.2557 66.6613 68.1304 66.6755C68.1074 66.6791 68.0983 66.7073 68.0893 66.7351C68.0806 66.7618 68.0721 66.788 68.0516 66.7917C68.0362 66.7761 67.9493 66.7213 67.8793 66.6772C67.8341 66.6487 67.7959 66.6246 67.7884 66.6183C67.7456 66.5729 67.7207 66.5395 67.7006 66.5126C67.6556 66.4523 67.6347 66.4242 67.4911 66.3648C67.2362 66.2563 67.223 66.258 67.0314 66.2829C67.021 66.2842 67.0099 66.2857 66.9983 66.2871C66.5389 66.0877 66.115 65.8367 65.6907 65.5854C65.2537 65.3267 64.8163 65.0676 64.339 64.8644C64.2849 64.8417 64.2046 64.7965 64.1409 64.7607C64.0896 64.7318 64.049 64.709 64.0418 64.709C63.9948 64.7015 63.9747 64.7235 63.9551 64.745C63.9322 64.7702 63.9099 64.7946 63.8463 64.7703C63.8147 64.7591 63.8153 64.7351 63.8161 64.7085C63.8169 64.6768 63.8179 64.6413 63.7648 64.6191C63.3983 64.4637 62.9789 64.2716 62.6368 64.063C62.2372 63.8174 61.7856 63.5744 61.3477 63.3388C60.8527 63.0725 60.3752 62.8156 60.0101 62.5749C59.9285 62.5425 59.9106 62.5846 59.8933 62.6253C59.8734 62.6718 59.8544 62.7164 59.7413 62.6444C59.106 62.3132 58.4544 61.9698 57.7988 61.5855C57.1431 61.2093 56.4834 60.8087 55.8318 60.3794C55.785 60.3559 55.7501 60.3876 55.7148 60.4196C55.6704 60.46 55.6253 60.5009 55.5549 60.4325C55.4507 60.3834 55.4509 60.3154 55.4511 60.2476C55.4512 60.1855 55.4514 60.1237 55.3716 60.0768C55.2373 60.0605 55.1029 60.0564 54.9848 60.1136C54.5938 59.8847 54.2151 59.6312 53.8404 59.3655L53.5635 59.161L53.3354 58.9893L52.9974 58.7195C52.9449 58.6774 52.8913 58.6344 52.8367 58.5905C52.3871 58.2295 51.8679 57.8126 51.3196 57.4153C50.4894 56.8166 49.5858 56.2411 48.69 55.6706C48.3379 55.4464 47.987 55.2229 47.6422 54.999C47.3317 54.7973 47.0346 54.5822 46.7412 54.3698C46.5767 54.2506 46.4133 54.1324 46.2495 54.0178C46.1963 53.9763 46.0424 53.8767 45.8903 53.7782C45.8328 53.741 45.7756 53.704 45.7241 53.6703C45.5991 53.59 45.4741 53.5112 45.3501 53.433C45.272 53.3839 45.1944 53.3349 45.1174 53.286C44.7101 53.0366 44.3069 52.8036 43.8916 52.5869C43.0457 51.9761 42.236 51.4216 41.4496 50.8831C41.2313 50.7336 41.0147 50.5853 40.7997 50.4373C40.5847 50.5853 40.3682 50.7336 40.1498 50.8831C39.3634 51.4216 38.5537 51.9761 37.7079 52.5869C37.2925 52.8036 36.8893 53.0366 36.4821 53.286C36.4051 53.3349 36.3274 53.3839 36.2494 53.433C36.1253 53.5112 36.0003 53.59 35.8753 53.6703C35.8239 53.704 35.7667 53.741 35.7091 53.7782C35.5571 53.8767 35.4032 53.9763 35.35 54.0178C35.1861 54.1324 35.0228 54.2506 34.8583 54.3698C34.5649 54.5822 34.2677 54.7973 33.9572 54.999C33.6125 55.2229 33.2615 55.4464 32.9094 55.6706C32.0137 56.2411 31.11 56.8166 30.2798 57.4153C29.7316 57.8126 29.2124 58.2295 28.7628 58.5904C28.7082 58.6343 28.6546 58.6774 28.602 58.7195L28.264 58.9893L28.036 59.161L27.759 59.3655C27.3844 59.6312 27.0056 59.8847 26.6147 60.1136C26.4966 60.0564 26.3622 60.0605 26.2278 60.0768C26.148 60.1237 26.1482 60.1855 26.1484 60.2476C26.1486 60.3154 26.1488 60.3834 26.0446 60.4325C25.9742 60.5009 25.9291 60.46 25.8846 60.4196C25.8494 60.3876 25.8145 60.3559 25.7676 60.3794C25.1161 60.8087 24.4563 61.2093 23.8007 61.5855C23.145 61.9698 22.4934 62.3132 21.8581 62.6444C21.745 62.7164 21.726 62.6718 21.7062 62.6253C21.6889 62.5846 21.6709 62.5425 21.5894 62.5749C21.2242 62.8156 20.7467 63.0725 20.2518 63.3388C19.8139 63.5744 19.3622 63.8174 18.9627 64.063C18.6206 64.2716 18.2011 64.4637 17.8346 64.6191C17.7815 64.6413 17.7825 64.6768 17.7834 64.7085C17.7841 64.7351 17.7848 64.7591 17.7532 64.7703C17.6896 64.7946 17.6673 64.7702 17.6444 64.745C17.6248 64.7235 17.6047 64.7015 17.5577 64.709C17.5504 64.709 17.5099 64.7318 17.4585 64.7607C17.3949 64.7965 17.3145 64.8417 17.2604 64.8644C16.7832 65.0676 16.3457 65.3267 15.9088 65.5854C15.4845 65.8367 15.0606 66.0877 14.6011 66.2871C14.5895 66.2857 14.5785 66.2842 14.568 66.2829C14.3764 66.258 14.3632 66.2563 14.1084 66.3648C13.9648 66.4242 13.9438 66.4523 13.8988 66.5126C13.8787 66.5395 13.8538 66.5729 13.8111 66.6183C13.8035 66.6246 13.7653 66.6487 13.7201 66.6772C13.6501 66.7213 13.5633 66.7761 13.5478 66.7917C13.5274 66.788 13.5188 66.7618 13.5102 66.7351C13.5012 66.7073 13.492 66.6791 13.469 66.6755C13.3437 66.6613 13.1362 66.8013 12.9203 66.9469C12.7643 67.0521 12.6039 67.1603 12.4672 67.2152C12.3146 67.2777 12.1465 67.3235 11.9727 67.3709C11.692 67.4474 11.3965 67.5279 11.1274 67.6895C11.5102 67.3379 11.7464 66.9331 11.5998 66.3812C11.3048 66.3301 11.0006 66.5005 10.6979 66.67C10.3948 66.8398 10.0932 67.0088 9.80386 66.9536C8.8835 67.6281 7.61292 68.2578 6.44414 68.7524C6.35047 68.7852 6.33011 68.8506 6.37898 68.9446C5.69757 69.1423 5.07025 69.4823 4.42454 69.8324C3.88166 70.1266 3.32578 70.428 2.71383 70.6576C3.65291 70.0934 4.61328 69.5977 5.57063 69.1035C6.86761 68.4341 8.15904 67.7675 9.38441 66.9372C9.92603 66.7655 11.2903 66.1318 12.0437 65.6861C12.4957 65.4122 12.5364 64.9339 12.0559 64.5332C11.6333 64.5612 11.3338 64.7566 11.0367 64.9506C10.8127 65.0967 10.59 65.2421 10.317 65.3141C10.3027 65.304 10.2883 65.2941 10.274 65.2841C10.0976 65.1617 9.93254 65.0471 9.96268 64.7785C10.4064 64.4368 10.9226 64.1636 11.4271 63.8967C12.1356 63.5218 12.8209 63.1592 13.2491 62.6362C13.3978 62.6391 13.5173 62.5519 13.639 62.4631C13.6872 62.4279 13.7358 62.3925 13.7867 62.3623C13.8177 62.2759 13.8249 62.1812 13.8322 62.0862C13.8373 62.0193 13.8424 61.9522 13.8559 61.888C13.826 61.861 13.7923 61.845 13.7583 61.8289C13.6998 61.8011 13.6406 61.7731 13.5993 61.6877C13.0871 61.9646 12.5464 62.0462 12.0066 62.1277C11.3747 62.2231 10.7442 62.3183 10.1622 62.7261C9.90974 62.6035 9.64911 62.4931 9.39255 62.3868C9.26856 62.4713 9.11515 62.5579 8.95035 62.6509C8.66046 62.8146 8.33533 62.9982 8.0731 63.2249C8.00973 63.2779 7.97717 63.2381 7.94436 63.198C7.92656 63.1763 7.90868 63.1544 7.88577 63.1472C7.77365 63.2174 7.66304 63.2873 7.55358 63.3565C6.62934 63.9405 5.78737 64.4727 4.81518 64.6518C5.19759 64.4044 5.61243 64.203 6.02138 64.0045C6.45732 63.7929 6.88657 63.5845 7.26269 63.3271C7.34498 63.2537 7.35884 63.1505 7.37256 63.0484C7.37717 63.014 7.38176 62.9798 7.38893 62.9469C7.824 62.8248 8.32221 62.5476 8.83187 62.264C9.20954 62.0538 9.59349 61.8402 9.96268 61.6836C9.99934 61.4669 9.85273 61.1153 9.52287 61.2952C9.55295 61.1834 9.60305 61.1699 9.68629 61.1473C9.71571 61.1393 9.74928 61.1303 9.78757 61.1153C9.75092 61.0376 9.70205 61.0131 9.64097 61.0213C9.74525 60.9627 9.82886 60.9151 9.90151 60.8738C10.1381 60.7393 10.2584 60.6709 10.598 60.502C10.6672 60.4244 10.598 60.2159 10.488 60.175C10.2847 60.3232 10.0556 60.3876 9.83127 60.4507C9.67813 60.4938 9.52727 60.5362 9.38848 60.6043C9.27538 60.6588 9.20374 60.7498 9.13309 60.8397C9.07654 60.9115 9.02063 60.9826 8.94459 61.0335C8.90161 61.0602 8.86686 61.0508 8.82896 61.0405C8.79146 61.0304 8.75087 61.0193 8.69617 61.0417C8.64145 61.0637 8.59379 61.1329 8.54813 61.1992C8.50884 61.2563 8.47102 61.3112 8.43147 61.332C8.37549 61.3622 8.32407 61.3617 8.26877 61.361C8.21948 61.3605 8.1671 61.3598 8.10568 61.381C7.87123 61.4609 7.66907 61.6347 7.46544 61.8098C7.27292 61.9754 7.07909 62.142 6.85545 62.2314C6.71048 62.29 6.54641 62.2986 6.37916 62.3073C6.13766 62.32 5.88952 62.3329 5.6826 62.4972C5.69393 62.2526 5.87281 62.1999 6.06838 62.1423C6.15392 62.1171 6.24266 62.091 6.32197 62.0475C6.74121 61.817 7.15262 61.4981 7.54948 61.1904C7.96217 60.8705 8.35914 60.5628 8.73282 60.3794C8.71293 60.1911 8.60577 60.1322 8.48885 60.0679C8.43824 60.0401 8.38579 60.0113 8.3378 59.9705C8.2191 60.078 8.11104 60.1388 8.00602 60.1978C7.92729 60.2421 7.85026 60.2854 7.77174 60.3467C7.72667 60.396 7.75683 60.4185 7.7886 60.4422C7.82 60.4655 7.85296 60.4901 7.81654 60.5429C7.55516 60.6801 7.31785 60.8327 7.07184 60.991C6.8119 61.1581 6.54225 61.3316 6.22423 61.4996C6.17593 61.4539 6.12622 61.4326 6.08114 61.4133C5.99318 61.3756 5.9228 61.3454 5.91473 61.1562C5.86449 61.1934 5.82798 61.1891 5.79184 61.185C5.77231 61.1827 5.75289 61.1805 5.73147 61.1848C5.63646 61.2181 5.65534 61.2321 5.69314 61.2602C5.72501 61.2838 5.77033 61.3175 5.77219 61.381C5.64386 61.2653 5.56549 61.3339 5.48866 61.401C5.42166 61.4597 5.35583 61.5172 5.25907 61.4506C4.97168 61.7791 4.63539 61.931 4.28663 62.0885C3.92373 62.2523 3.54732 62.4223 3.19844 62.8038C3.61623 62.2715 4.31932 61.8624 5.02628 61.4512L5.05545 61.4342C5.13838 61.386 5.10553 61.3531 5.07159 61.319C5.0422 61.2896 5.01198 61.2593 5.05545 61.2175C5.16605 61.1566 5.28473 61.1501 5.40042 61.1438C5.50199 61.1382 5.60126 61.1328 5.69075 61.0908C5.83108 61.0252 5.89235 60.9293 5.95655 60.8288C6.0004 60.7602 6.04562 60.6894 6.11835 60.6247C6.21807 60.5364 6.3422 60.4763 6.46775 60.4156C6.60369 60.3498 6.74129 60.2832 6.85138 60.1791C6.9221 60.1136 6.97535 60.0316 7.02753 59.9512C7.12859 59.7956 7.22564 59.6461 7.4378 59.6353C7.44893 59.5781 7.44581 59.5299 7.44287 59.4846C7.43721 59.3972 7.43224 59.3205 7.53147 59.2101C7.51149 59.1353 7.44451 59.1012 7.38331 59.0701C7.3073 59.0314 7.24019 58.9972 7.28305 58.8953C7.34315 58.8193 7.36553 58.8679 7.38811 58.9169C7.40683 58.9576 7.42569 58.9985 7.46631 58.9689C7.56087 58.8923 7.58003 58.7836 7.5991 58.6755C7.60549 58.6393 7.61186 58.6031 7.62106 58.5682C8.00811 58.5301 8.30323 58.3004 8.61514 58.0575C8.63797 58.0397 8.6609 58.0219 8.68395 58.004C8.72527 57.9531 8.67824 57.9405 8.62435 57.926C8.56139 57.909 8.48907 57.8896 8.53735 57.8037C8.74097 57.8364 9.19708 57.5216 9.20929 57.2599C9.43999 57.2071 9.58822 57.1038 9.74195 56.9967C9.89758 56.8882 10.0588 56.7759 10.317 56.708C10.4086 56.662 10.3546 56.593 10.3105 56.5368C10.2801 56.4981 10.2545 56.4654 10.2844 56.4504C10.4173 56.2476 10.559 56.1876 10.7285 56.1158C10.8187 56.0776 10.9167 56.0361 11.0256 55.968C11.107 55.7063 11.3921 55.4242 11.6894 55.3466C11.6006 55.1648 11.4544 55.2218 11.3086 55.2787C11.2807 55.2896 11.2527 55.3005 11.2251 55.3098C11.2213 55.0837 11.5789 55.1162 11.7445 55.1313C11.7555 55.1323 11.7657 55.1332 11.7749 55.134C12.0946 54.8561 12.3541 54.5339 12.6177 54.2065C12.9786 53.7583 13.3472 53.3006 13.8885 52.9344C13.9541 52.8988 13.9741 52.8252 13.9927 52.7572C14.0167 52.669 14.0382 52.5901 14.1532 52.6155C14.1939 52.5787 14.141 52.5092 14.1043 52.5296C14.252 52.384 14.4885 52.2319 14.742 52.069C15.2712 51.7288 15.8741 51.3412 15.8962 50.8657C15.9937 50.8595 15.9898 50.883 15.9837 50.9196C15.9776 50.9565 15.9693 51.0066 16.0591 51.0537C16.0909 50.9013 16.2014 50.8173 16.3073 50.7367C16.4314 50.6422 16.5494 50.5525 16.5274 50.3628C16.6984 50.2175 16.893 50.1075 17.0821 50.0007C17.4197 49.8099 17.7396 49.6291 17.8753 49.2753C17.9099 49.2637 17.945 49.2481 17.9801 49.2325C18.0817 49.1873 18.1837 49.1419 18.2744 49.1935C18.417 48.9278 18.7224 48.5475 19.0848 48.5312L19.6183 48.0283L19.7527 47.9057L19.9156 47.7626L20.2903 47.4396C20.7871 47.0226 21.2636 46.6546 21.74 46.2989C22.693 45.5916 23.6296 44.9538 24.5622 44.3324L24.5631 44.3318C25.4791 43.7187 26.3951 43.1057 27.3111 42.4967L27.9789 42.0347L28.1459 41.9202C28.1678 41.9031 28.1781 41.8933 28.188 41.8838C28.1947 41.8774 28.2012 41.8712 28.2111 41.863L28.3251 41.7608C28.4717 41.6218 28.6061 41.4828 28.7242 41.3397C29.0991 41.3037 29.2679 41.0056 29.3997 40.7728C29.4325 40.7148 29.463 40.6609 29.4939 40.616C29.5108 40.5905 29.5611 40.5817 29.6114 40.5729C29.7061 40.5563 29.8007 40.5398 29.6731 40.4116C29.7455 40.3487 29.8359 40.2836 29.929 40.2166C30.223 40.005 30.5441 39.7738 30.4142 39.5285C30.6789 39.4713 30.7767 39.365 30.8093 39.2464C30.8255 39.1851 30.8255 39.1197 30.8133 39.0502C30.8052 39.0134 30.797 38.9766 30.7767 38.9398C30.7656 38.9119 30.7393 38.8954 30.7147 38.88C30.7032 38.8728 30.6921 38.8658 30.683 38.858C30.6425 38.8258 30.6286 38.7943 30.6148 38.7632C30.5954 38.7193 30.5764 38.6762 30.4835 38.6331C30.4534 38.6191 30.3967 38.606 30.3401 38.5929C30.2816 38.5794 30.2233 38.5659 30.1943 38.5514C30.0942 38.4992 30.0878 38.436 30.0814 38.3718C30.0743 38.3002 30.067 38.2274 29.9296 38.1671C29.8606 38.1379 29.7723 38.1177 29.6897 38.0988C29.587 38.0753 29.4933 38.0539 29.4572 38.0199C29.399 37.9672 29.3482 37.9 29.294 37.8285C29.1549 37.6448 28.994 37.4323 28.6305 37.3616C28.5618 37.3505 28.5486 37.3054 28.5357 37.2614C28.5249 37.2246 28.5144 37.1885 28.4717 37.1736C28.4439 37.1628 28.3902 37.1724 28.339 37.1816C28.2928 37.1898 28.2486 37.1977 28.2274 37.1899C28.1583 37.1644 28.1119 37.1062 28.0651 37.0475C28.0595 37.0405 28.0539 37.0334 28.0482 37.0264C28.0197 36.9896 27.9912 36.9569 27.9586 36.9324L27.9342 36.916L27.9219 36.9078L27.8771 36.871C27.816 36.822 27.755 36.7729 27.6898 36.732C27.5431 36.6339 27.4337 36.4863 27.3228 36.3366C27.2397 36.2244 27.1557 36.1111 27.0545 36.0166C26.8781 35.8523 26.6824 35.715 26.4922 35.5817C26.138 35.3333 25.8032 35.0985 25.6495 34.7287C24.9287 34.4303 24.1142 33.6044 23.6133 32.8031C23.5563 32.799 23.5034 32.8194 23.4464 32.844C23.2609 32.5413 22.9651 32.3482 22.6722 32.1569C22.3992 31.9787 22.1286 31.802 21.9518 31.5398C21.9047 31.4875 21.8576 31.4989 21.8105 31.5102C21.7802 31.5175 21.75 31.5248 21.7197 31.5152C21.5527 31.2209 21.3409 31.1186 21.0518 30.9796C20.7064 30.4206 20.277 30.0787 19.8671 29.7523C19.4797 29.4438 19.1097 29.1493 18.8446 28.6983C18.4021 28.6165 18.1043 28.324 17.8078 28.0327C17.6595 27.887 17.5116 27.7416 17.3459 27.6231C17.2778 27.5733 17.1803 27.5551 17.0832 27.5369C16.9889 27.5193 16.895 27.5018 16.8287 27.4554C16.7573 27.4045 16.7289 27.3352 16.6999 27.2647C16.6778 27.2106 16.6553 27.1558 16.6129 27.1079C16.574 27.0668 16.5185 27.0453 16.4601 27.0227C16.4024 27.0003 16.3418 26.9768 16.2912 26.9321C16.2227 26.8696 16.1786 26.7742 16.1339 26.6778C16.091 26.5851 16.0476 26.4913 15.9817 26.4252C15.9116 26.3548 15.8182 26.3189 15.727 26.2838C15.6434 26.2517 15.5615 26.2202 15.5011 26.1635C15.4218 26.0903 15.3764 25.99 15.3321 25.8923C15.2923 25.8043 15.2534 25.7185 15.1916 25.6565C15.0678 25.5307 14.8996 25.4667 14.7298 25.402C14.4251 25.286 14.1153 25.168 14.0473 24.6876C13.8394 24.5995 13.6591 24.4706 13.4676 24.3337C13.3214 24.2293 13.1688 24.1203 12.9925 24.0212C12.8902 23.9627 12.7741 23.9173 12.6625 23.8737C12.5165 23.8165 12.378 23.7624 12.288 23.6859C12.2337 23.6405 12.197 23.5673 12.1612 23.4958C12.1325 23.4386 12.1043 23.3825 12.0681 23.3425C11.8969 23.1588 11.6641 23.0487 11.4302 22.9382C11.0966 22.7805 10.7608 22.6217 10.598 22.2468C10.2446 22.1318 9.92614 21.8342 9.60973 21.5384C9.13842 21.098 8.67176 20.6618 8.1016 20.8404C7.87355 21.1429 7.6007 21.2451 7.42966 21.1593C7.32252 21.1044 7.29705 21.0033 7.26681 20.8834C7.24303 20.7891 7.21631 20.6831 7.14459 20.5787C6.9369 20.2803 6.35862 19.6302 5.93102 19.5157C5.85376 19.4925 5.74443 19.5078 5.6365 19.523C5.51687 19.5398 5.39895 19.5564 5.3283 19.5198C5.18499 19.4469 5.10887 19.2818 5.03059 19.112C4.9465 18.9297 4.85992 18.7419 4.68487 18.6572C4.55456 18.5941 4.3857 18.6084 4.24818 18.6201C4.14501 18.6289 4.05947 18.6362 4.02107 18.6081C3.76043 18.416 3.736 17.8354 3.81337 17.6065C3.77469 17.5533 3.73803 17.5513 3.70138 17.5492C3.66473 17.5472 3.62808 17.5451 3.58939 17.492C3.59347 16.8869 2.80749 16.1346 2.24143 15.7258C2.17704 15.6796 2.09417 15.5848 2.03282 15.5145C2.01269 15.4915 1.99488 15.4711 1.9808 15.456C1.47273 14.8581 1.30104 14.0536 1.13498 13.2756C1.10005 13.1119 1.06537 12.9495 1.02786 12.7903C1.0756 12.7096 1.08613 12.6398 1.09676 12.5693C1.10336 12.5256 1.11 12.4816 1.1256 12.4346C1.0532 12.2489 1.00861 12.0612 0.964367 11.8749C0.919011 11.6839 0.874017 11.4945 0.799805 11.3103C0.856301 11.1822 0.849998 11.0714 0.843672 10.9601C0.835863 10.8227 0.828019 10.6847 0.938266 10.5131C0.968831 10.265 0.964348 10.033 0.959692 9.79193C0.956903 9.64757 0.954052 9.49998 0.958628 9.34378C0.963709 9.19243 0.952586 9.03189 0.941376 8.87009C0.925636 8.6429 0.909724 8.41325 0.938266 8.20311C0.97127 7.94357 1.06949 7.69645 1.16975 7.44422C1.29216 7.13625 1.41759 6.82067 1.43103 6.46554C1.77241 6.02935 2.04242 5.51307 2.33622 4.9513C2.5436 4.55477 2.76284 4.13557 3.0274 3.70587C3.03901 3.67092 3.03976 3.63804 3.04052 3.60484C3.0419 3.54483 3.0433 3.48375 3.10885 3.40741C3.49251 3.32747 3.72176 3.01931 3.95756 2.70235C4.11972 2.48437 4.28498 2.26223 4.50568 2.1073C4.58202 2.05256 4.68872 2.03652 4.79702 2.02023C4.89093 2.00611 4.98605 1.99181 5.0636 1.95194C5.31829 1.82547 5.53062 1.64353 5.71917 1.48197C5.811 1.40328 5.89719 1.32943 5.97989 1.26917C6.68848 1.39183 7.3645 1.28144 8.04459 1.13834C8.12987 1.12081 8.21484 1.10295 8.29959 1.08513C8.88662 0.96171 9.4636 0.840407 10.0686 0.84398C10.081 0.84398 10.1047 0.859463 10.134 0.878611C10.1815 0.909635 10.2437 0.950278 10.2966 0.950278C10.5745 0.95236 10.8789 1.00852 11.1924 1.06638C11.4945 1.12213 11.8051 1.17946 12.1088 1.19149C12.5113 1.02754 12.8386 1.20533 13.2477 1.4276C13.4099 1.51571 13.5849 1.6108 13.7826 1.69437C13.8607 1.72815 13.9285 1.75211 13.9961 1.77599C14.133 1.82434 14.269 1.87236 14.4871 2.001C14.7192 2.13818 14.979 2.22085 15.2364 2.30275C15.4622 2.37463 15.6862 2.44592 15.888 2.55293C16.1757 2.70827 16.3845 2.92988 16.5952 3.15361C16.7395 3.30676 16.8847 3.46091 17.0568 3.59548C17.1485 3.66708 17.2687 3.7049 17.3874 3.74223ZM13.5664 66.7896C13.5464 66.7979 13.5419 66.7977 13.5478 66.7917C13.5531 66.7926 13.5593 66.7921 13.5664 66.7896ZM13.5749 66.7859C13.5718 66.7873 13.569 66.7885 13.5664 66.7896C13.5691 66.7886 13.5719 66.7874 13.5749 66.7859ZM68.0516 66.7917C68.0463 66.7926 68.0402 66.792 68.033 66.7896C68.053 66.7979 68.0576 66.7977 68.0516 66.7917ZM68.033 66.7896C68.0304 66.7886 68.0275 66.7874 68.0246 66.7859C68.0276 66.7873 68.0305 66.7885 68.033 66.7896ZM9.07083 58.9116C9.05047 58.8585 9.02196 58.8381 8.98531 58.8421C8.96495 58.5887 9.30703 58.7972 9.07083 58.9116ZM8.72081 59.27C8.8284 59.1837 8.93393 59.099 9.03418 59.0384C8.98888 58.9247 8.94183 58.8883 8.90154 58.8571C8.85491 58.821 8.81735 58.792 8.80205 58.6582C8.63162 58.6701 8.55088 58.7392 8.46174 58.8154C8.3677 58.8958 8.26432 58.9843 8.03644 59.022C8.03644 59.2319 7.9412 59.2625 7.74288 59.3262L7.73509 59.3287C7.80156 59.4877 7.69908 59.5779 7.59664 59.668C7.48569 59.7657 7.37478 59.8633 7.47853 60.0482C7.72287 59.9215 7.93463 59.9174 8.13011 59.9542C8.17404 59.8938 8.11294 59.8071 8.06384 59.7374C8.02647 59.6844 7.99607 59.6413 8.02423 59.6271C8.24441 59.6523 8.48748 59.4573 8.72081 59.27ZM72.5286 58.9116C72.549 58.8585 72.5775 58.8381 72.6141 58.8421C72.6345 58.5887 72.2924 58.7972 72.5286 58.9116ZM72.8787 59.27C72.7711 59.1837 72.6655 59.099 72.5653 59.0384C72.6106 58.9247 72.6576 58.8883 72.6979 58.8571C72.7445 58.821 72.7821 58.792 72.7974 58.6582C72.9678 58.6701 73.0486 58.7392 73.1377 58.8154C73.2318 58.8958 73.3351 58.9843 73.563 59.022C73.563 59.2319 73.6583 59.2625 73.8566 59.3262L73.8644 59.3287C73.7979 59.4877 73.9004 59.5779 74.0028 59.668C74.1138 59.7657 74.2247 59.8633 74.1209 60.0482C73.8766 59.9215 73.6648 59.9174 73.4693 59.9542C73.4254 59.8938 73.4865 59.8071 73.5356 59.7374C73.573 59.6844 73.6034 59.6413 73.5752 59.6271C73.355 59.6523 73.112 59.4573 72.8787 59.27Z" fill="white"/>
</svg>
