<svg width="180" height="97" viewBox="0 0 180 97" fill="none" xmlns="http://www.w3.org/2000/svg">
<g clip-path="url(#clip0_475_6285)">
<path d="M13.004 34.8869C17.7427 35.7332 21.7995 33.4235 25.6627 30.9484C29.8495 28.2697 33.9348 25.4287 37.9059 22.4318C41.7723 19.5177 45.5404 16.47 49.188 13.2822C52.7119 10.2027 56.1311 6.97356 58.5321 2.91095C59.6074 1.09121 56.9938 -1.06894 55.5443 0.598096C40.2467 18.1465 36.3327 41.7428 26.3478 62.164C23.7818 67.4164 20.8669 72.7357 16.9022 77.0687C15.0245 79.1207 12.3697 81.9807 9.48016 82.4325C6.65091 82.8747 5.05549 79.7824 4.40844 77.4982C1.06853 65.7017 11.0756 54.1183 20.8511 49.1395C27.3247 45.8436 34.6199 45.0673 41.7882 45.2105C45.6261 45.2868 49.4544 45.6018 53.2765 45.9167C56.8289 46.2094 60.3718 46.7471 63.7339 45.2677C65.9732 44.2847 64.0384 40.992 61.8118 41.9718C60.321 42.6272 58.6146 42.5095 57.0319 42.4013C55.1891 42.2772 53.3494 42.1054 51.5098 41.9559C47.8844 41.6632 44.2495 41.4024 40.6114 41.3801C33.6461 41.3387 26.6936 42.2709 20.3087 45.1818C9.42307 50.1416 -0.720368 61.5882 0.034522 74.25C0.361218 79.7315 3.46959 87.3668 10.2351 86.1738C13.2736 85.6361 15.9284 83.3837 18.0948 81.3063C20.5339 78.9648 22.6019 76.2288 24.4384 73.3942C31.1309 63.0675 35.2067 51.2837 39.4062 39.799C44.1131 26.9239 49.1119 13.7626 58.2372 3.2959C57.2412 2.52601 56.2453 1.75293 55.2493 0.983042C53.0639 4.67979 49.9175 7.58439 46.7203 10.3904C43.3963 13.3045 39.9771 16.1105 36.4564 18.7828C32.961 21.4361 29.3769 23.9684 25.7103 26.3767C22.418 28.5401 18.228 31.9537 14.019 31.2029C11.6211 30.7766 10.5935 34.4574 13.004 34.8869Z" fill="black"/>
<path d="M88.0493 21.9992C90.1744 20.4276 91.8777 18.5124 93.0227 16.1136C93.7174 14.6566 92.5692 12.8527 90.8722 13.3108C80.4877 16.1136 72.8437 24.9578 66.037 32.784C58.4659 41.4883 51.6433 50.8383 45.4647 60.5797C43.7741 63.2456 42.1311 65.9403 40.5325 68.6635C38.9307 71.3931 37.3956 74.18 36.6502 77.2819C36.3045 78.7198 37.5605 79.9733 38.991 79.6297C42.8511 78.7007 44.51 75.1758 46.8476 72.3635C47.3614 71.7431 47.9196 71.1323 48.5826 70.671C49.4167 70.0888 49.3882 70.6296 49.7752 71.4154C50.7108 73.3115 51.9574 74.7495 54.0729 75.3253C58.8878 76.636 62.9635 72.7993 66.9156 70.725C71.6067 68.2627 76.7704 66.6338 82.0229 65.9466C81.7026 64.76 81.3822 63.5765 81.0618 62.3899C78.6989 64.1364 76.4944 66.0643 74.547 68.2754C73.0086 70.0251 70.8677 72.233 71.1817 74.7749C71.9524 81.0168 80.5734 76.7665 83.612 75.4526C94.1677 70.8841 103.715 64.2064 114.537 60.2233C116.513 59.4948 116.259 56.5552 114.03 56.4725C112.301 56.4089 110.969 57.2201 109.989 58.604C108.565 60.6083 111.863 62.5171 113.275 60.5319C113.471 60.2552 113.735 60.2806 114.03 60.2933C113.861 59.0431 113.693 57.7928 113.522 56.5425C104.644 59.8098 96.591 64.7695 88.1984 69.0612C86.1399 70.1142 84.0624 71.1227 81.9436 72.0453C80.0596 72.8661 77.8583 74.0273 75.7998 74.285C74.6358 74.4313 74.8039 74.2373 75.3716 73.3306C75.9901 72.3348 76.818 71.4281 77.6046 70.5628C79.2349 68.7653 81.0301 67.1269 82.9808 65.6858C84.2876 64.7186 84.1195 61.8554 82.0197 62.129C76.8021 62.8098 71.7938 64.2064 67.0171 66.427C64.6224 67.5405 62.4307 68.9371 60.1692 70.2828C58.5389 71.2563 55.8206 72.6784 54.0603 71.145C52.6393 69.9043 52.6774 67.7855 50.7901 66.8533C48.7729 65.8544 46.689 67.146 45.2236 68.514C42.8384 70.7441 41.3952 75.1217 37.9792 75.9457C38.7595 76.7283 39.5397 77.5109 40.32 78.2935C41.5443 73.2065 44.9508 68.584 47.6818 64.2032C50.5681 59.5775 53.594 55.0377 56.7753 50.6124C63.0872 41.8318 70.0081 33.274 77.8234 25.7818C81.8675 21.9069 86.4095 18.4679 91.884 16.9885C91.1672 16.0532 90.4504 15.1179 89.7336 14.1857C88.8835 15.9705 87.7226 17.523 86.124 18.7033C84.1766 20.1444 86.0733 23.4562 88.0493 21.9992Z" fill="black"/>
<path d="M121.188 54.201C120.668 48.904 119.022 43.8742 116.193 39.3631C115.476 40.2984 114.759 41.2337 114.042 42.1658C126.91 47.4278 140.486 41.975 152.431 36.8752C151.476 36.3249 150.521 35.7777 149.567 35.2273C149.303 39.1563 148.647 43.2666 148.897 47.202C149.11 50.5583 150.67 53.6156 154.191 54.3791C157.95 55.1936 162.295 54.5637 166.076 54.1533C170.323 53.692 174.529 52.9348 178.671 51.8818C178.053 50.8192 177.437 49.7534 176.819 48.6908C169.305 57.7864 161.73 66.9487 152.707 74.6031C148.383 78.2712 143.553 82.1239 138.069 83.8354C135.779 84.5512 131.868 85.2543 130.574 82.4706C129.61 80.3996 130.206 78.1249 128.258 76.4706C126.4 74.8894 123.694 77.5777 125.565 79.1716C126.815 80.2341 126.498 82.7411 127.196 84.1981C128.087 86.0592 129.885 87.3763 131.836 87.949C136.562 89.3392 141.961 86.7432 145.919 84.3381C154.397 79.1811 161.67 71.9339 168.277 64.5977C172.143 60.3028 175.826 55.8489 179.508 51.3918C180.682 49.9729 179.61 47.7046 177.656 48.2009C170.84 49.9316 163.7 51.0005 156.652 50.8287C155.406 50.7969 153.994 50.6633 153.284 49.4925C152.65 48.4491 152.656 47.0493 152.678 45.8721C152.751 42.3281 153.132 38.765 153.37 35.2273C153.477 33.6207 151.708 33.0671 150.505 33.5793C139.442 38.3005 126.952 43.3525 115.048 38.485C113.481 37.8424 112.073 39.9707 112.897 41.2878C115.355 45.2041 116.922 49.5848 117.373 54.201C117.62 56.622 121.429 56.6474 121.188 54.201Z" fill="black"/>
<path d="M133.33 60.1565C125.15 65.6285 116.884 70.97 108.539 76.1811C106.465 77.4759 108.374 80.7813 110.461 79.477C118.81 74.2659 127.072 68.9244 135.252 63.4524C137.279 62.094 135.376 58.7885 133.33 60.1565Z" fill="black"/>
<path d="M134.237 66.357C128.024 74.829 121.211 82.8366 113.881 90.3541C112.168 92.1102 114.854 94.8144 116.573 93.0551C124.135 85.3021 131.119 77.021 137.526 68.285C138.976 66.303 135.674 64.3973 134.237 66.357Z" fill="black"/>
<path d="M139.277 70.2511C136.419 78.2999 133.289 86.247 129.87 94.0764C128.896 96.3065 132.175 98.2503 133.156 96.0043C136.705 87.8759 139.978 79.6298 142.947 71.2691C143.768 68.9467 140.092 67.9509 139.277 70.2511Z" fill="black"/>
</g>
<defs>
<clipPath id="clip0_475_6285">
<rect width="180" height="97" fill="white"/>
</clipPath>
</defs>
</svg>
