<svg width="181" height="154" viewBox="0 0 181 154" fill="none" xmlns="http://www.w3.org/2000/svg">
<path d="M35.7724 81.8304C35.7074 80.1651 35.7901 78.5007 35.9955 76.8465C36.0382 76.5008 36.015 76.7053 36.0038 76.7805C36.0196 76.6672 36.0364 76.5538 36.054 76.4404C36.08 76.2704 36.107 76.1003 36.1349 75.9312C36.2101 75.4786 36.2938 75.027 36.3848 74.5762C36.5512 73.7575 36.7417 72.9444 36.9536 72.1368C37.816 68.8462 39.0101 65.655 40.2637 62.4972C40.5686 61.7296 40.8771 60.9629 41.1865 60.1962C41.3148 59.8793 41.443 59.5634 41.5741 59.2484C41.6019 59.1805 41.6307 59.1127 41.6586 59.0448C41.5387 59.3348 41.6373 59.0941 41.6614 59.0374C41.7395 58.8571 41.8166 58.6768 41.8956 58.4966C42.4662 57.2039 43.099 55.9307 43.8862 54.7543C43.98 54.6149 44.0757 54.4764 44.1733 54.3398C44.2319 54.258 44.493 53.9179 44.2997 54.1614C44.5376 53.8631 44.7839 53.5722 45.0459 53.2943C45.2755 53.0518 45.5152 52.8195 45.7652 52.5983C45.8907 52.4877 46.0217 52.3827 46.1499 52.2749C46.2949 52.1531 46.1174 52.3009 46.097 52.3158C46.1918 52.2489 46.2838 52.1792 46.3795 52.1141C46.6006 51.9626 46.8302 51.8242 47.0662 51.6987C47.1852 51.6355 47.3078 51.5788 47.4287 51.5194C47.4677 51.4998 47.6489 51.4097 47.4407 51.5101C47.2056 51.6244 47.5114 51.484 47.5643 51.4645C48.1005 51.2638 48.6433 51.1634 49.1999 51.0417C49.4276 50.9924 48.87 51.0649 49.1023 51.0566C49.1599 51.0547 49.2185 51.0445 49.2761 51.0398C49.4109 51.0278 49.5465 51.0203 49.6813 51.0157C49.9694 51.0055 50.2574 51.0101 50.5446 51.0315C50.6292 51.038 51.013 51.1281 50.776 51.0501C50.5195 50.9664 50.9256 51.0798 51 51.0947C51.2908 51.1532 51.5789 51.2313 51.8596 51.3289C51.9014 51.3437 52.1569 51.4078 52.1681 51.4459C52.1662 51.4413 51.8419 51.2889 52.0677 51.4106C52.1318 51.445 52.1978 51.4748 52.2619 51.5082C52.3577 51.5584 52.4525 51.6123 52.5445 51.6681C52.6058 51.7052 52.6671 51.7443 52.7266 51.7842C52.7563 51.8047 52.7861 51.8242 52.8158 51.8446C52.931 51.9292 52.9329 51.9283 52.8195 51.8418C52.7628 51.8548 52.6885 51.7275 52.8195 51.8446C52.8734 51.892 52.9283 51.9375 52.9812 51.9859C53.0742 52.0704 53.1634 52.1596 53.2498 52.2516C53.287 52.2907 53.3214 52.3334 53.3585 52.3725C53.5286 52.5462 53.3372 52.2963 53.3028 52.2879C53.3799 52.3055 53.5128 52.5908 53.5509 52.6531C53.6475 52.8111 53.9096 53.1614 53.904 53.3492C53.904 53.3557 53.7795 53.0295 53.8436 53.2107C53.8696 53.2832 53.9003 53.3538 53.9282 53.4244C53.9839 53.5694 54.0378 53.7162 54.0927 53.8621C54.3231 54.4866 54.5536 55.1139 54.8417 55.7142C55.4783 57.0422 56.6167 58.0505 58.1323 58.136C59.7382 58.2271 61.1656 57.0942 62.1748 55.9549C62.9712 55.0563 63.6329 54.0461 64.21 52.9951C64.7573 51.9979 65.2415 50.9683 65.7675 49.96C66.0193 49.4768 66.2805 48.9982 66.5648 48.5335C66.6986 48.3151 66.8371 48.0995 66.9821 47.8886C67.0536 47.7845 67.1289 47.6832 67.2014 47.5801C67.3482 47.3719 67.1577 47.6758 67.1345 47.6628C67.1373 47.6646 67.2572 47.5104 67.2683 47.4964C67.5945 47.0996 67.9606 46.766 68.3389 46.4212C68.4978 46.2762 68.0619 46.6006 68.2478 46.4918C68.2915 46.4658 68.3333 46.4305 68.3751 46.4008C68.4755 46.3311 68.5777 46.2651 68.6827 46.2019C68.7877 46.1378 68.8955 46.0774 69.0042 46.0207C69.0674 45.9882 69.1325 45.9584 69.1957 45.9259C69.4364 45.7995 69.0934 45.9696 69.0925 45.964C69.0702 45.7986 71.15 45.4352 71.3554 45.3897C72.1453 45.2141 72.9361 44.9353 73.6201 44.4966C74.8579 43.7021 75.7928 42.5358 76.5018 41.2617C76.8215 40.6874 77.0984 40.0908 77.3614 39.4886C77.4869 39.2005 77.6096 38.9115 77.7313 38.6225C78.0454 37.8791 77.9172 38.1839 77.8475 38.3465C77.88 38.2703 77.9125 38.1932 77.946 38.117C78.0445 37.8874 78.1439 37.6579 78.2452 37.4302C79.5472 34.4853 81.0526 31.6295 82.7458 28.8909C83.6073 27.4979 84.5171 26.1355 85.4742 24.8057C85.701 24.4906 85.9305 24.1765 86.1629 23.8652C86.279 23.7091 86.3961 23.5539 86.5132 23.3996C86.5634 23.3337 86.6136 23.2668 86.6647 23.2008C86.7139 23.1357 86.8961 22.9015 86.7585 23.0772C87.2195 22.4843 87.6776 21.883 88.1887 21.331C88.4164 21.0848 88.6599 20.8608 88.9127 20.6406C89.0558 20.5151 88.8727 20.6768 88.8522 20.6889C88.9312 20.6415 89.0047 20.5839 89.0827 20.5365C89.1608 20.4891 89.2407 20.4463 89.3206 20.4017C89.4842 20.3097 89.4247 20.3711 89.2909 20.4064C89.3745 20.3841 89.4656 20.3534 89.5464 20.3264C89.5771 20.3162 89.8039 20.2521 89.5883 20.3051C89.368 20.359 89.6403 20.3041 89.7053 20.3032C89.7658 20.3023 89.828 20.3088 89.8875 20.306C90.1765 20.2921 89.5734 20.2075 89.9247 20.319C89.9897 20.3395 90.0585 20.3673 90.1245 20.3794C90.3029 20.4119 89.8615 20.2279 90.0092 20.3311C90.0213 20.3395 90.3047 20.5197 90.3178 20.5132C90.2518 20.5476 90.0483 20.2716 90.2239 20.4417C90.2741 20.49 90.327 20.5346 90.3772 20.5839C90.3967 20.6024 90.5993 20.8125 90.5928 20.819C90.5742 20.8385 90.3893 20.5207 90.5306 20.74C90.5807 20.818 90.6346 20.8933 90.6839 20.9723C90.7536 21.0857 90.8196 21.2009 90.8809 21.3189C90.9106 21.3756 91.1095 21.7678 90.9952 21.5438C90.8856 21.3282 91.0668 21.7343 91.0863 21.7901C91.1411 21.9425 91.1904 22.0977 91.2368 22.2529C91.3177 22.527 91.3864 22.8049 91.445 23.0846C91.4738 23.2231 91.5008 23.3625 91.5249 23.5028C91.5416 23.5985 91.5965 24.0576 91.576 23.8104C91.5547 23.5539 91.5983 24.0371 91.6076 24.1171C91.6309 24.3308 91.6532 24.5445 91.6755 24.7583C91.7238 25.2164 91.773 25.6746 91.8214 26.1327C92.0091 27.9049 92.1968 29.6771 92.3845 31.4483C92.7637 35.0224 93.1428 38.5974 93.5211 42.1715C93.7051 43.9075 93.7348 45.8172 95.0135 47.1609C96.1807 48.3876 97.885 48.4917 99.4649 48.6106C99.6266 48.6227 99.7873 48.6357 99.9481 48.6525C100.016 48.6599 100.085 48.6664 100.153 48.6757C99.7808 48.6274 100.035 48.6599 100.111 48.6785C100.44 48.7593 100.762 48.829 101.083 48.9433C101.133 48.961 101.402 49.0604 101.194 48.9805C101.002 48.9062 101.209 48.987 101.24 49.0019C101.38 49.0697 101.52 49.1376 101.657 49.2128C101.953 49.3736 102.232 49.5567 102.506 49.7528C102.758 49.933 102.533 49.7769 102.489 49.7388C102.54 49.7825 102.593 49.8252 102.645 49.8689C102.766 49.9721 102.884 50.078 102.999 50.1877C103.264 50.4395 103.513 50.7081 103.746 50.9887C103.826 51.0854 103.986 51.3205 103.824 51.0835C103.928 51.2359 104.039 51.3818 104.141 51.5361C104.332 51.8242 104.507 52.1215 104.669 52.4273C104.744 52.5695 104.816 52.7135 104.885 52.8585C104.913 52.9207 104.94 52.9849 104.971 53.0462C105.082 53.2683 104.876 52.7925 104.964 53.0248C105.108 53.4058 105.247 53.7859 105.363 54.1772C105.596 54.9606 105.753 55.7607 105.876 56.5683C105.919 56.8508 105.856 56.3424 105.883 56.6277C105.891 56.7123 105.902 56.7959 105.911 56.8805C105.933 57.0775 105.952 57.2745 105.969 57.4725C106.005 57.8972 106.032 58.3218 106.053 58.7475C106.093 59.5996 106.106 60.4518 106.115 61.3049C106.19 68.5005 106.253 75.696 106.322 82.8916C106.339 84.6545 106.356 86.4174 106.373 88.1803C106.382 89.0547 107.136 89.8939 108.046 89.853C108.946 89.8131 109.728 89.1179 109.719 88.1803C109.648 80.8193 109.578 73.4592 109.507 66.0982C109.473 62.4972 109.63 58.8274 109.039 55.2617C108.539 52.2442 107.189 49.2324 104.751 47.2901C103.431 46.2391 101.967 45.569 100.289 45.3497C99.9695 45.3079 99.6498 45.28 99.3283 45.2568C99.1424 45.2438 98.9556 45.2317 98.7697 45.2168C98.6424 45.2066 98.1536 45.1462 98.5272 45.2029C98.2159 45.1555 97.9222 45.0821 97.623 44.9882C97.938 45.0867 97.6323 44.9585 97.5012 44.9065C97.2987 44.8256 97.6797 45.0988 97.5273 44.9362C97.4492 44.8535 97.3656 44.781 97.2894 44.6946C97.492 44.926 97.2819 44.6221 97.2187 44.5115C97.1258 44.3498 97.2475 44.5663 97.2541 44.5914C97.2317 44.5022 97.1946 44.413 97.1695 44.3238C97.1249 44.1639 97.0905 44.0022 97.0598 43.8387C97.0505 43.7866 96.9985 43.4865 97.0338 43.7077C97.0682 43.9167 97.0227 43.6138 97.0189 43.5757C96.9167 42.6817 96.8284 41.7849 96.7336 40.89C96.5394 39.0565 96.3452 37.2239 96.151 35.3904C95.7653 31.755 95.3797 28.1196 94.9949 24.4841C94.7152 21.8459 94.1251 18.4586 91.3632 17.2932C87.7873 15.784 85.2549 19.543 83.4279 21.9769C81.4448 24.618 79.6484 27.4003 78.0566 30.2951C77.2676 31.7299 76.5279 33.1926 75.8411 34.6795C75.4545 35.5168 75.0893 36.3625 74.7297 37.2118C74.8904 36.8318 74.6693 37.355 74.6377 37.4284C74.5754 37.5733 74.5131 37.7183 74.4499 37.8633C74.3133 38.1755 74.1721 38.485 74.0234 38.7917C73.7297 39.3957 73.4054 39.9877 73.0179 40.5369C72.9677 40.6084 72.9147 40.6781 72.8636 40.7497C72.8738 40.7358 73.0486 40.5304 72.9231 40.6679C72.8209 40.7794 72.7279 40.8984 72.6248 41.009C72.5226 41.1177 72.4157 41.2236 72.3051 41.3249C72.2419 41.3825 72.1741 41.4355 72.1127 41.4931C71.9464 41.6502 72.4315 41.2822 72.096 41.5034C71.8432 41.6697 71.5877 41.8295 71.3089 41.9494C71.61 41.8193 71.1277 41.9968 71.0357 42.0228C70.795 42.0925 70.5506 42.1492 70.3062 42.2013C69.5776 42.3555 68.8509 42.4828 68.1567 42.7616C65.7954 43.7114 64.2722 45.6889 63.0967 47.8719C62.5493 48.8885 62.0605 49.9349 61.5178 50.9543C61.2483 51.4608 60.9658 51.9617 60.6573 52.4459C60.5151 52.668 60.3682 52.8873 60.213 53.101C60.1833 53.1419 60.1155 53.2637 60.0802 53.2822C60.0746 53.285 60.2948 53.023 60.1712 53.1652C60.0737 53.2776 59.9844 53.3965 59.8869 53.509C59.7057 53.719 59.5151 53.9207 59.3144 54.1121C59.2206 54.2013 59.1248 54.2887 59.0273 54.3732C58.9854 54.4095 58.9427 54.4448 58.9009 54.481C58.649 54.6966 59.0598 54.4058 58.8423 54.5201C58.6825 54.6046 58.5375 54.7152 58.374 54.7951C58.6332 54.6697 58.4083 54.784 58.3452 54.7896C58.176 54.8044 58.1769 54.757 58.3424 54.7998C57.9576 54.6994 58.6063 54.902 58.3247 54.8165C58.3312 54.8184 58.1454 54.757 58.1351 54.7626C58.2522 54.7041 58.4455 55.0061 58.2309 54.7914C57.979 54.5387 58.4214 55.0117 58.2271 54.797C58.163 54.7264 57.9725 54.4606 58.0942 54.6743C58.2336 54.9187 58.0264 54.5637 57.9911 54.5061C57.9065 54.3677 57.8303 54.2236 57.7588 54.0787C57.6807 53.9197 57.5627 53.7311 57.7188 54.0145C57.6547 53.8993 57.6157 53.759 57.5683 53.6372C57.4623 53.3631 57.3638 53.0862 57.2607 52.8111C56.7942 51.5593 56.2384 50.3577 55.1892 49.4823C54.1791 48.6395 52.9738 48.0521 51.6709 47.8328C48.8997 47.3645 46.1722 48.0577 43.9586 49.7825C41.5787 51.6365 40.0742 54.3649 38.894 57.0859C37.54 60.2055 36.2826 63.3884 35.1647 66.601C34.003 69.939 33.096 73.3431 32.6528 76.8549C32.4446 78.5081 32.3647 80.1734 32.4297 81.8387C32.4641 82.7123 33.175 83.5533 34.1025 83.5115C34.977 83.4641 35.8096 82.7671 35.7724 81.8304Z" fill="black"/>
<path d="M112.586 60.6367C104.541 68.3369 95.5451 74.9879 85.8339 80.4374C75.8718 86.0271 65.1272 90.4571 54.0053 93.1214C42.6809 95.834 30.626 96.2875 19.6444 91.9319C14.8325 90.0231 10.0104 87.0781 6.66767 83.0682C5.12038 81.2124 3.80728 78.8343 3.88627 76.3531C3.95968 74.0456 5.46887 72.1917 7.23919 70.8544C9.38587 69.2328 11.9322 68.0498 14.3976 67.0034C17.0006 65.8984 19.6983 65.01 22.424 64.2638C27.9877 62.7407 33.702 61.8393 39.4218 61.1488C45.4307 60.4239 51.459 59.8701 57.4688 59.148C63.8968 58.3748 70.3127 57.4938 76.71 56.5023C89.3857 54.5377 101.995 52.1383 114.505 49.2993C125.966 46.6972 137.375 43.6677 148.304 39.3019C153.774 37.1171 159.125 34.6219 164.237 31.6909C169.028 28.9448 173.946 25.9134 177.305 21.4333C180.295 17.4456 181.601 11.9219 179.624 7.1973C177.706 2.61492 173.039 0.322332 168.218 0.602052C163.303 0.887347 158.771 3.11488 154.921 6.07006C150.717 9.29752 147.131 13.1922 144.083 17.5209C137.701 26.5853 133.959 37.2109 131.327 47.896C128.345 60.0039 126.569 72.3757 123.183 84.3897C119.962 95.8219 115.611 106.926 110.143 117.471C107.498 122.571 104.633 127.59 101.41 132.35C98.4779 136.681 95.1306 140.777 91.0398 144.067C87.4509 146.953 83.1714 149.096 78.5732 149.695C74.4416 150.234 70.0116 149.691 66.3139 147.698C62.4564 145.619 59.8283 142.075 59.0347 137.754C58.2095 133.266 59.5021 128.491 61.778 124.616C67.2033 115.381 78.3205 111.575 88.1367 109.127C100.103 106.142 112.65 104.73 124.93 106.396C126.493 106.608 128.056 106.866 129.598 107.195C130.325 107.35 131.532 107.54 131.974 108.223C132.97 109.765 128.619 111.486 127.743 111.892C122.434 114.355 116.793 116.12 111.047 117.215C105.398 118.292 99.6303 118.65 93.8891 118.354C91.7377 118.242 91.7433 121.589 93.8891 121.699C106.19 122.336 118.571 119.878 129.719 114.648C131.968 113.593 134.715 112.201 135.338 109.548C136.029 106.597 133.49 104.701 130.949 104.073C127.912 103.323 124.722 102.961 121.612 102.684C118.437 102.4 115.248 102.308 112.062 102.381C105.682 102.527 99.3152 103.33 93.062 104.589C87.3319 105.743 81.5777 107.184 76.1552 109.398C70.9957 111.504 66.0453 114.344 62.2176 118.46C58.7949 122.141 56.4076 126.901 55.7059 131.892C54.995 136.955 56.0321 142.083 59.2484 146.135C62.0568 149.672 66.3 151.891 70.6891 152.743C75.2129 153.623 80.0202 153.292 84.3544 151.702C89.3968 149.851 93.8063 146.526 97.4855 142.661C101.292 138.661 104.427 134.059 107.292 129.355C110.445 124.179 113.319 118.832 115.906 113.351C121.124 102.298 125.217 90.7164 128.097 78.838C131.139 66.2897 132.873 53.4291 136.67 41.0647C139.777 30.9474 144.448 20.9909 151.849 13.2842C155.25 9.74265 159.26 6.3981 163.982 4.82758C167.819 3.55258 172.81 3.22919 175.575 6.78097C178.567 10.6246 177.143 16.2069 174.415 19.7447C171.038 24.1245 165.813 27.0137 161.057 29.6408C150.583 35.4267 139.236 39.418 127.722 42.5739C115.522 45.9176 103.093 48.4973 90.6532 50.7713C77.6839 53.1419 64.6309 55.0507 51.525 56.4846C39.695 57.7782 27.5741 58.6137 16.2924 62.6924C13.4952 63.7034 10.7436 64.8957 8.13782 66.3324C5.85639 67.5907 3.68554 69.1529 2.18286 71.3144C-1.31224 76.3429 1.40596 82.4251 5.15941 86.3988C12.8921 94.5841 24.8532 98.2121 35.8347 98.5336C48.3552 98.9007 60.8199 95.3461 72.3135 90.6448C82.9298 86.3031 92.9876 80.6641 102.178 73.7984C106.649 70.4585 110.919 66.8612 114.951 63.0018C116.509 61.5112 114.141 59.148 112.586 60.6367Z" fill="black"/>
</svg>
