<svg width="207" height="55" viewBox="0 0 207 55" fill="none" xmlns="http://www.w3.org/2000/svg">
<g clip-path="url(#clip0_539_4124)">
<path d="M206.62 15.5583C204.634 14.0707 204.62 14.0161 205.554 12.0235C205.759 11.5868 205.89 11.0955 206.211 10.727C207.336 9.45778 207.234 8.27043 206.065 7.09674C205.175 6.19599 205.043 5.3089 206.08 4.40815C206.314 4.21708 206.416 3.95778 206.241 3.52105C204.649 3.52105 202.999 3.52105 201.363 3.52105C200.823 4.1079 202.108 4.21708 201.728 4.72205C200.925 5.77292 200.969 7.23321 199.129 7.82006C198.413 8.03842 197.829 8.13396 197.114 8.21584C195.785 8.36597 196.121 7.34239 195.726 6.87837C195.128 7.01485 195.259 8.1749 194.719 7.69723C193.755 6.86473 192.806 7.08309 191.813 7.26051C191.272 7.35604 190.922 7.17862 190.513 7.01485C190.206 6.89202 190.031 6.66001 189.987 6.38706C189.914 5.90939 190.411 5.97763 190.688 5.80021C191.477 5.3089 192.28 5.40443 193.156 5.51361C194.66 5.69103 197.172 4.89947 198.282 3.90319C196.632 3.87589 195.332 2.72949 193.682 3.11162C193.594 3.80765 194.587 3.64388 194.485 4.1079C194.368 4.58557 193.813 4.55828 193.331 4.54463C191.097 4.47639 188.804 4.77664 186.891 3.34364C186.629 3.13892 186.117 2.82502 185.592 3.16622C185.533 3.50741 186.103 3.50741 186.074 3.90319C185.971 5.37713 186.001 5.37713 187.651 5.48631C187.724 5.48631 187.811 5.47267 187.884 5.48631C188.323 5.5955 188.848 5.60914 188.892 6.15505C188.921 6.63272 188.439 6.67366 188.103 6.75555C186.687 7.13768 185.241 7.30145 183.781 7.08309C182.496 6.89202 182.394 6.67366 182.759 5.44537C183.051 4.50368 182.496 3.68483 181.678 3.99872C179.926 4.6811 178.349 3.49376 176.669 3.87589C176.348 3.95778 175.764 3.95778 175.822 3.49376C175.851 3.26175 176.319 3.05703 176.596 2.83867C174.742 2.18359 173.048 2.11535 171.397 3.43917C170.404 4.24438 169.017 3.90319 167.776 3.72577C167.455 3.68483 167.177 3.49376 167.309 3.16622C167.411 2.90691 168.068 2.7022 167.469 2.40195C167.06 2.19723 166.754 2.53842 166.549 2.82502C165.965 3.64388 165.512 3.68483 164.914 2.79773C164.519 2.21088 163.745 2.22453 163.044 2.33371C162.825 2.94785 163.935 2.81138 163.804 3.37093C161.584 4.02602 160.825 4.05331 160.314 3.58929C159.7 3.01609 160.839 2.75679 160.591 2.21088C160.182 2.21088 159.759 2.11535 159.408 2.22453C158.006 2.7022 157.802 2.74314 156.721 2.48383C156.356 2.40195 156.006 2.16994 155.641 2.37465C155.407 2.9615 156.59 2.86597 156.21 3.64388C155.48 3.72577 154.648 3.8213 153.83 3.60294C152.369 3.22081 150.836 3.2754 149.463 3.60294C148.135 3.91684 147.01 3.38458 145.783 3.46646C145.389 3.49376 145.083 3.19351 145.156 2.77043C145.199 2.47019 146.061 2.14264 145.17 1.86969C144.703 1.73321 144.484 2.03346 144.382 2.4156C144.294 2.72949 143.914 2.60666 143.739 2.68855C142.016 3.49376 140.351 2.92056 138.54 2.82502C138.978 1.7878 140.278 2.64761 140.658 1.88334C140.234 1.26919 139.796 1.70592 139.387 1.70592C138.935 1.70592 138.496 1.48756 138.044 1.41932C137.723 1.37837 137.503 1.55579 137.299 1.80145C136.262 2.97515 136.248 2.97515 134.816 2.14264C133.823 1.56944 132.757 1.28284 131.545 1.25555C129.866 1.22825 128.172 1.58309 126.493 1.09177C126.128 0.982593 125.543 1.09177 125.222 1.29649C124.755 1.58309 125.66 2.16994 125.062 2.55207C123.66 2.60666 122.302 2.08805 120.87 2.361C120.359 2.45654 119.921 2.14264 119.527 1.71957C118.651 0.777878 117.322 0.94165 116.081 0.859764C114.956 0.791526 115.336 1.41932 115.234 1.91063C115.19 2.16994 114.752 2.22453 114.445 2.22453C113.817 2.21088 113.204 2.14264 112.576 2.15629C111.568 2.18359 110.312 2.60666 110.604 0.968945C110.648 0.70964 110.196 0.586811 109.874 0.627754C109.202 0.723287 108.618 0.791526 108.034 1.31014C106.91 2.32006 105.07 2.34736 104.033 1.61038C102.208 0.313858 100.411 0.136439 98.6298 1.28284C98.2063 1.55579 97.9288 1.86969 97.5784 1.48756C96.0158 -0.177457 93.8108 0.382096 91.9269 0.450334C90.6127 0.504925 89.3422 0.600459 88.0425 0.327506C86.7866 0.0545528 85.1657 -0.0682759 84.5816 0.887059C83.8806 2.01981 82.8876 1.56944 82.6539 1.2419C81.7339 -0.122866 80.3028 0.24562 79.0031 0.177382C77.3238 0.0682005 77.3092 0.122791 77.3238 1.71957C76.652 1.5285 75.8781 1.48756 75.367 1.16001C73.8774 0.163734 73.8482 0.109143 72.6946 0.163734C71.9206 0.204677 71.205 0.395744 70.3873 0.286563C68.1968 -0.0136854 65.9625 0.504925 63.7428 0.0272575C63.1149 -0.109219 62.3409 0.0954957 61.6838 0.286563C60.9828 0.47763 60.2673 0.586811 59.6101 0.47763C56.0616 -0.136514 52.4838 0.518573 48.9352 0.191029C47.5041 0.0682005 46.1606 0.695992 44.7733 0.518573C42.8749 0.272915 40.9911 0.382096 39.0927 0.47763C34.5365 0.70964 29.9803 0.955297 25.4241 1.25555C20.7657 1.56944 16.1365 2.30641 11.4342 2.30641C9.41901 2.30641 7.34536 2.18359 5.31552 2.63396C4.19107 2.89326 3.35869 3.04339 3.11044 4.25803C2.96441 4.995 2.9206 5.8821 2.14663 6.49624C1.47488 7.01485 2.40949 8.14761 1.53329 8.44785C0.233612 8.89823 1.27044 9.83991 0.671708 10.4677C-0.554959 11.7369 1.32885 13.3747 0.219009 14.7531C0.204406 14.7667 0.306628 14.8622 0.379644 14.8895C1.44568 15.299 0.963771 15.7084 0.481866 16.2816C0.189803 16.6228 0.0145647 17.5235 0.160596 17.5918C1.5479 18.2605 0.204406 19.134 0.467263 19.8573C0.744723 20.6216 -0.102261 21.6178 1.18282 22.2183C1.60631 22.423 1.21203 22.6278 0.905358 22.696C-0.102261 22.9144 -0.14607 23.201 0.77393 23.6104C1.0952 23.7605 1.0952 24.1972 0.876152 24.3064C-0.598769 25.098 0.13139 25.9714 0.627898 26.8995C0.978374 27.5682 1.0806 28.3052 1.5771 28.9603C1.82536 29.3015 2.13203 29.8883 1.5771 30.2704C0.394247 31.0756 1.00758 31.8399 1.46028 32.7134C1.91298 33.5868 3.09583 34.5149 1.62091 35.5111C2.30726 36.0161 1.0806 36.7804 2.0152 37.3399C2.80377 37.8176 2.80377 38.7183 2.40949 39.3734C1.83996 40.3151 2.07361 41.1886 2.26345 42.1166C2.36568 42.6488 2.45329 43.1811 2.4825 43.727C2.52631 45.2828 3.19806 46.4019 5.09647 46.7704C5.44695 46.8387 6.01647 47.1799 5.98726 47.3436C5.6806 49.1861 7.35996 48.8312 8.49901 49.1861C10.2076 49.7047 11.8723 49.1997 13.5663 49.227C17.0127 49.2543 20.4444 49.2952 23.8908 49.268C31.2946 49.1997 38.6838 49.6637 46.0876 49.7866C53.5498 49.923 60.9974 50.2506 68.4596 50.2779C72.6362 50.2915 76.8127 50.5235 80.9892 50.5645C85.1511 50.6054 89.3422 51.0285 93.5187 51.3833C99.7542 51.902 106.004 51.6972 112.24 51.9156C118.987 52.1476 125.748 52.4069 132.48 52.8846C136.817 53.1985 141.169 53.3486 145.521 53.3759C146.017 53.3759 146.601 53.4168 147.112 52.8982C145.521 52.6526 143.929 52.598 142.469 52.5297C137.737 52.3114 133.02 51.6972 128.274 51.6836C127.121 51.6836 125.996 51.861 124.813 51.6153C121.951 51.0285 119.001 50.8784 116.081 50.9739C113.919 51.0421 111.773 50.8238 109.626 50.8784C108.969 50.892 108.385 50.7692 107.874 50.1141C108.852 49.3908 110.079 49.8548 110.794 49.5273C113.262 48.4218 115.73 49.1315 118.154 49.227C121.265 49.3498 124.361 50.2369 127.471 49.3908C128.201 49.1997 128.654 48.8449 129.223 49.7456C129.457 50.1278 130.815 50.8511 131.575 49.6637C131.706 49.459 132.173 49.2952 132.261 49.7047C132.553 51.0558 133.648 50.6737 134.466 50.4007C135.999 49.8821 137.518 50.0732 139.022 50.2915C140.103 50.4553 141.154 50.4144 141.841 49.8139C142.79 48.9814 143.9 49.2816 144.601 49.6091C146.061 50.2915 147.623 51.2196 149.084 50.5099C150.968 49.6228 152.238 51.6972 153.903 50.8511C153.976 50.8238 154.049 50.7828 154.122 50.7828C154.458 50.7692 154.794 50.8374 154.779 51.1923C154.706 52.6389 155.787 52.1613 156.444 51.8474C157.495 51.356 158.459 51.0421 159.656 51.4516C161.672 52.1476 163.658 52.134 165.688 51.3424C166.286 51.1104 166.856 50.6464 167.644 50.8101C169.835 51.2742 172.04 51.2742 174.245 50.933C174.596 50.8784 175.223 50.933 175.34 51.1104C176.436 52.9255 178.159 51.629 179.385 51.5062C180.335 51.4106 181.094 51.3014 181.956 51.6563C182.861 52.0384 183.825 52.2977 184.803 52.5024C185.3 52.6116 185.928 52.7208 186.088 52.3796C186.512 51.4379 186.994 51.9975 187.622 52.0794C188.191 52.1476 189.286 52.598 189.432 51.7655C189.608 50.7828 190.382 52.1476 190.396 51.4789C190.425 50.0186 191.477 49.1451 192.63 48.2444C193.112 49.3635 193.989 50.0595 194.909 49.6091C196.544 48.8176 196.88 49.6501 197.333 50.6191C197.479 50.933 197.712 51.2196 197.844 51.5335C198.399 52.9665 199.874 53.062 201.232 53.2121C201.86 53.2804 202.444 52.9801 202.59 52.325C202.911 50.8784 203.627 49.4727 202.692 47.9851C202.342 47.4392 202.429 46.7295 202.765 46.2109C203.758 44.6414 202.867 42.9082 203.466 41.325C203.568 41.0657 203.481 40.7518 203.189 40.6017C202.196 40.0831 202.707 39.5918 203.247 39.1687C203.641 38.8548 204.123 38.6364 204.605 38.3362C203.262 37.8995 203.028 36.9578 203.568 36.057C204.021 35.3064 204.853 34.8015 203.641 34.0099C203.276 33.7642 203.86 33.4913 204.123 33.2593C204.371 33.0409 204.576 30.8982 204.415 30.7345C203.364 29.629 203.349 29.6017 204.736 28.8238C205.306 28.4962 205.729 28.0868 206.153 27.6774C205.525 27.227 204.517 27.3908 204.211 26.5719C204.59 25.9305 205.7 25.8622 205.876 25.057C205.656 24.2928 204.43 24.8796 204.284 24.0744C204.43 23.7196 204.766 23.5558 205.189 23.6104C205.613 23.665 206.168 23.624 205.861 23.2283C205.189 22.3275 205.671 21.4268 205.934 20.7171C206.46 19.325 205.846 18.6563 204.561 18.1104C204.459 18.0694 204.43 17.892 204.357 17.7419C204.809 17.2233 205.248 16.6637 205.744 16.1588C205.934 15.9268 206.299 15.763 206.62 15.5583ZM13.7269 47.8622C13.9752 47.3027 14.5155 47.5074 15.3917 47.1662C14.7054 47.9987 14.2089 47.9441 13.7269 47.8622ZM69.9638 48.9404C70.8838 48.5446 70.8838 48.5446 72.3003 48.5992C71.3949 49.2134 71.3949 49.2134 69.9638 48.9404ZM99.0825 50.5099C98.6152 50.5918 97.8996 50.6873 97.7536 50.0459C97.6514 49.5273 98.1917 49.4181 98.6006 49.1178C99.4768 48.5037 100.251 48.4354 101.215 48.6948C101.419 48.7493 101.842 48.6675 101.842 48.6948C102.076 50.0049 103.682 49.6228 104.822 50.428C102.573 50.4826 100.835 50.196 99.0825 50.5099ZM128.566 2.52478C128.128 2.57937 127.661 2.64761 127.34 2.23818C127.223 2.08805 127.194 2.00617 127.34 1.91063C127.836 1.58309 128.157 1.97887 128.552 2.08805C128.946 2.19723 129.413 2.16994 130.012 2.21088C129.472 2.79773 128.99 2.48383 128.566 2.52478ZM131.808 12.4739C131.487 12.4603 131.224 12.3238 131.18 12.0235C131.151 11.7915 131.356 11.696 131.604 11.7096C131.954 11.7233 132.129 11.9144 132.246 12.1464C132.232 12.392 132.027 12.4739 131.808 12.4739ZM140.03 13.2245C139.577 13.1836 139.022 13.1426 138.978 12.6786C138.949 12.3784 139.358 12.1464 139.767 12.1191C140.249 12.2283 140.643 12.4057 140.672 12.8697C140.672 13.2382 140.336 13.2518 140.03 13.2245ZM147.404 5.62279C146.09 6.22329 146.09 6.22329 145.009 5.78656C145.652 5.86845 146.295 5.66373 147.404 5.62279ZM144.25 8.84364C144.323 8.89823 144.323 9.13024 144.25 9.18483C143.695 9.67614 143.359 9.19847 142.79 8.85728C143.418 8.66622 143.856 8.52974 144.25 8.84364ZM142.279 11.1774C142.147 11.1501 141.972 10.7816 142.045 10.6724C142.235 10.3449 142.717 10.1811 143.023 10.3449C143.958 10.8635 145.053 10.9044 146.426 11.2729C144.703 12.4603 143.52 11.4094 142.279 11.1774ZM145.506 12.7605C146.265 12.4603 147.054 12.3511 147.974 12.5694C147.142 13.634 146.324 13.2109 145.506 12.7605ZM149.332 10.7543C148.952 9.68979 148.952 9.68979 149.712 8.78904C149.478 9.43048 150.544 10.2084 149.332 10.7543ZM150.822 16.7593C150.646 16.7047 150.573 16.5682 150.661 16.4317C150.851 16.1588 151.143 16.1451 151.449 16.2543C151.625 16.3089 151.683 16.4317 151.625 16.5955C151.406 16.8412 151.128 16.8684 150.822 16.7593ZM152.647 5.99128C153.669 5.63644 154.589 5.67738 155.568 6.12775C154.195 6.86473 154.02 6.85108 152.647 5.99128ZM155.071 5.2543C154.735 5.17242 154.297 5.34984 154.107 4.92676C154.239 4.46274 154.677 4.35356 155.129 4.32627C155.655 4.28532 156.356 4.36721 156.312 4.94041C156.239 5.65009 155.582 5.37713 155.071 5.2543ZM161.394 13.9479C161.161 13.9479 160.985 13.8387 160.942 13.634C160.898 13.4019 161.044 13.2928 161.307 13.2791C161.526 13.2791 161.716 13.3337 161.774 13.5521C161.73 13.7431 161.672 13.9342 161.394 13.9479ZM162.402 6.4553C162.197 6.55083 161.978 6.49624 161.803 6.30517C161.204 5.67738 160.343 4.995 159.89 4.85852C160.606 4.3945 161.219 3.99872 161.759 4.44909C162.27 4.87217 162.533 5.51361 162.869 6.07316C162.898 6.12775 162.592 6.37341 162.402 6.4553ZM171.602 10.495C172.507 10.0719 173.179 10.3449 173.836 10.6861C173.135 10.6315 172.347 11.1501 171.602 10.495ZM173.062 12.392C174.274 11.655 176.333 12.665 175.691 10.4677C176.392 11.3002 177.034 11.8598 178.086 12.0099C176.494 12.7332 175.048 12.3511 173.062 12.392ZM180.057 11.4913C180.057 11.8188 180.086 12.1737 179.4 12.3511C179.196 11.696 179.152 10.9317 178.173 10.5223C179.21 10.1811 179.911 10.0719 180.597 10.4268C180.802 10.9727 180.057 11.0682 180.057 11.4913ZM181.182 6.31882C180.481 7.15133 179.531 7.13768 178.451 6.96026C176.26 6.60542 174.041 6.07316 171.85 6.46895C170.959 6.63272 170.142 6.90567 169.295 6.60542C168.973 6.48259 167.644 6.67366 168.681 5.58185C169.046 5.19971 167.44 5.19971 166.651 4.46274C169.105 4.4218 170.974 5.19971 172.945 5.60914C173.69 5.75927 174.406 5.74562 174.888 5.3089C175.311 4.92676 175.501 4.49004 176.304 4.59922C177.808 4.80393 179.385 4.25803 180.875 4.995C181.663 5.39078 181.59 5.84115 181.182 6.31882ZM195.055 18.124C194.514 18.1104 193.974 17.7555 193.901 17.3188C193.813 16.7866 194.397 16.5273 194.952 16.4454C195.741 16.3362 195.697 16.9776 195.916 17.2369C195.975 17.933 195.507 18.1377 195.055 18.124ZM193.536 12.856C192.996 12.5558 192.893 12.2965 193.054 11.7233C193.594 9.71708 194.792 9.0347 196.778 10.0173C197.581 10.4131 198.107 9.77167 198.837 10.1948C197.289 11.6823 197.289 11.6823 199.07 12.7196C197.289 13.7431 195.201 13.7841 193.536 12.856ZM202.765 6.37341C202.415 6.33247 201.933 6.37341 201.976 5.89574C201.991 5.75927 202.312 5.51361 202.385 5.54091C202.721 5.66373 202.999 5.86845 203.262 6.01857C203.203 6.37341 202.984 6.40071 202.765 6.37341Z" fill="black"/>
<path d="M162.825 53.0347C158.196 52.8573 153.523 52.5025 148.821 53.0757C149.025 53.6625 149.464 53.7717 149.931 53.7308C153.757 53.4032 157.539 54.0583 161.351 54.0447C166.593 54.031 171.865 54.031 177.093 54.3722C180.539 54.5906 184.015 54.3586 187.446 54.9318C188.512 55.1092 189.666 54.9045 190.776 54.8772C190.776 54.6997 190.776 54.5223 190.776 54.3586C186.234 53.5533 181.576 53.7035 176.991 53.4442C172.274 53.1712 167.542 53.2122 162.825 53.0347Z" fill="black"/>
<path d="M183.065 3.31634C183.299 3.2208 183.387 2.98879 183.226 2.83867C182.744 2.34735 182.116 2.55207 181.517 2.63396C181.444 2.6476 181.386 2.70219 181.298 2.75678C181.751 3.27539 182.277 3.61659 183.065 3.31634Z" fill="black"/>
<path d="M123.806 1.00988C123.309 0.982585 123.002 1.22824 122.783 1.58308C123.309 1.80144 123.718 1.67862 123.996 1.26919C124.01 1.22824 123.864 1.02353 123.806 1.00988Z" fill="black"/>
<path d="M198.224 54.686C198.53 54.9317 198.822 54.8089 199.085 54.6997C199.29 54.6042 199.757 54.6042 199.494 54.2357C199.436 54.1538 199.071 54.1811 198.895 54.2493C198.647 54.3449 198.443 54.5359 198.224 54.686Z" fill="black"/>
<path d="M78.9353 23.0799V24.7599H88.2313V23.0799H78.9353ZM78.9353 26.2159V27.8319H87.9273V26.2159H78.9353ZM78.6953 29.3359V30.9839H87.9913V29.3359H78.6953ZM77.8313 23.0799V27.2399C77.8313 29.2079 77.6233 31.5599 75.3193 33.1759C75.7033 33.4479 76.4073 34.1519 76.6793 34.5359C79.2393 32.7119 79.7033 29.6239 79.7033 27.2719V23.0799H77.8313ZM87.2233 23.0799V32.2639C87.2233 32.5679 87.1113 32.6639 86.7593 32.6639C86.3913 32.6799 85.0633 32.6799 83.9593 32.6319C84.2313 33.1119 84.5833 33.9439 84.6793 34.4719C86.2793 34.4719 87.3833 34.4399 88.1353 34.1519C88.8713 33.8639 89.1273 33.3359 89.1273 32.2959V23.0799H87.2233ZM82.4393 23.7839V30.1999H84.2633V23.7839H82.4393ZM80.0553 20.2959V21.8639H84.9673V20.2959H80.0553ZM79.8153 19.3359C79.0633 20.9359 77.6873 22.7759 75.6233 24.1359C76.0713 24.4239 76.6953 25.0799 76.9993 25.5439C79.2553 23.8639 80.7753 21.7999 81.8633 19.7039L79.8153 19.3359ZM84.2953 20.2959V20.6479C83.9753 21.4479 83.2393 22.7439 82.5833 23.5279C82.9833 23.7519 83.5753 24.1359 83.9273 24.4239C84.7273 23.5599 85.7353 22.1679 86.3433 21.0799L85.0313 20.2159L84.7273 20.2959H84.2953Z" fill="white"/>
<path d="M94.3273 27.3199V29.0479H103.671V27.3199H94.3273ZM98.0713 24.2159V28.1999H100.007V24.2159H98.0713ZM94.2313 23.5119V25.2239H103.095V29.6879H105.063V23.5119H94.2313ZM93.2873 23.5119V31.3359C93.2873 33.7039 94.1993 34.2959 97.2553 34.2959C97.9593 34.2959 101.943 34.2959 102.711 34.2959C105.367 34.2959 106.055 33.5759 106.391 31.1119C105.831 31.0159 104.999 30.7279 104.519 30.4239C104.311 32.1999 104.055 32.5199 102.567 32.5199C101.639 32.5199 98.0553 32.5199 97.2393 32.5199C95.5113 32.5199 95.2233 32.3599 95.2233 31.3199V23.5119H93.2873ZM96.0873 20.5039L95.2553 22.1519H100.983V20.5039H96.0873ZM95.8313 19.3359C94.9673 20.9999 93.3993 22.9359 91.2233 24.3919C91.6553 24.6959 92.2953 25.3519 92.5993 25.7999C94.9833 24.0239 96.6473 21.8799 97.9113 19.7359L95.8313 19.3359ZM100.119 20.5039V20.8719C99.7833 21.7519 99.0153 23.0959 98.2953 23.8959C98.6633 24.1839 99.2393 24.7759 99.5113 25.1759C100.455 24.1999 101.511 22.6319 102.215 21.2559L100.919 20.3919L100.551 20.5039H100.119Z" fill="white"/>
<path d="M115.831 22.2799V24.0879H122.423V22.2799H115.831ZM107.415 22.3599V24.1519H114.743V22.3599H107.415ZM116.183 19.3999C115.735 22.1519 114.839 24.7439 113.415 26.2959C113.879 26.5839 114.695 27.2399 115.015 27.5759C116.519 25.7519 117.543 22.8559 118.119 19.7039L116.183 19.3999ZM119.575 23.4159C118.967 28.2159 117.367 31.1759 113.495 32.7279C113.831 33.1119 114.375 33.9919 114.551 34.4239C118.791 32.4719 120.647 29.1119 121.479 23.6239L119.575 23.4159ZM116.871 23.6879L115.143 23.9759C116.055 28.9199 117.655 32.6159 121.303 34.4399C121.575 33.9279 122.167 33.1599 122.615 32.7919C119.239 31.3039 117.623 27.8799 116.871 23.6879ZM110.183 19.4159V27.5119H112.119V19.4159H110.183ZM108.071 26.6159V33.7359H109.847V26.6159H108.071ZM109.159 26.6159V28.4079H112.391V31.0159H109.159V32.7919H114.215V26.6159H109.159Z" fill="white"/>
<path d="M129.879 19.4159V32.6159C129.879 32.8879 129.783 32.9839 129.479 32.9999C129.207 32.9999 128.263 33.0159 127.495 32.9839C127.735 33.3679 128.039 34.0399 128.135 34.4879C129.495 34.4879 130.359 34.4559 130.983 34.2159C131.591 33.9439 131.831 33.5599 131.831 32.6159V19.4159H129.879ZM123.879 20.4559V21.9759H137.959V20.4559H123.879ZM127.351 23.8319H134.423V24.5999H127.351V23.8319ZM125.527 22.6159V25.8159H136.391V22.6159H125.527ZM125.127 26.5199V27.8319H134.711V32.7759H136.663V26.5199H125.127ZM123.511 28.5039V29.9599H138.327V28.5039H123.511ZM124.999 30.7119V32.1039H135.751V30.7119H124.999Z" fill="white"/>
</g>
<defs>
<clipPath id="clip0_539_4124">
<rect width="207" height="55" fill="white"/>
</clipPath>
</defs>
</svg>
