<svg width="181" height="52" viewBox="0 0 181 52" fill="none" xmlns="http://www.w3.org/2000/svg">
<path d="M17.2267 27.8834C30.6512 29.0777 44.232 28.2543 57.4302 25.5315C63.9919 24.1776 70.4555 22.3397 76.746 20.031C79.5121 19.0164 83.5739 18.1066 84.4371 14.8299C85.3054 11.5332 82.4195 8.7439 79.9329 7.12718C74.6021 3.66087 68.4712 1.30898 62.1822 0.354247C58.9056 -0.143078 55.3694 -0.4774 52.7447 1.96432C50.5525 4.00518 49.8689 7.17874 49.7142 10.0479C49.3599 16.6362 52.0894 22.8985 52.0445 29.4519C52.0129 34.1807 50.4544 39.3402 45.5709 40.9968C42.6485 41.9882 39.4284 42.1013 36.3712 42.221C33.0513 42.3524 29.7231 42.2759 26.4114 41.9948C19.8614 41.4393 13.3845 40.0238 7.17878 37.8615C5.61029 37.3143 4.0601 36.7155 2.52654 36.0751C2.52654 37.3575 2.52654 38.6416 2.52654 39.924C13.5874 37.7784 24.9744 37.7251 36.1966 37.2661C47.6135 36.7987 59.0303 36.3513 70.4521 35.9953C93.394 35.2801 116.359 34.9375 139.308 35.5762C152.228 35.9354 165.142 36.6091 178.022 37.6919C177.846 36.3845 177.668 35.0788 177.492 33.7715C173.237 34.4734 168.773 33.6817 164.977 31.6591C163.217 30.721 161.266 32.6122 162.246 34.3902C162.975 35.7109 164.673 36.0003 165.919 35.2535C167.474 34.3204 167.462 32.3693 166.667 30.9406C165.967 29.6814 165.062 28.5038 164.265 27.3046C163.46 26.0937 162.7 24.5951 161.22 24.1244C159.758 23.6587 158.306 24.3955 157.567 25.6812C156.877 26.8821 156.777 28.3857 156.566 29.7247C156.088 32.7469 155.726 35.7891 155.5 38.8395C155.244 42.2892 155.162 45.7472 155.242 49.2052C156.378 48.7345 157.514 48.2638 158.65 47.7931C158.712 47.8729 158.773 47.9511 158.835 48.0309C158.926 48.3669 159.016 48.7029 159.107 49.0389C159.109 49.0122 159.111 48.9856 159.112 48.9607C159.021 49.2967 158.931 49.6327 158.84 49.9686C158.427 50.6889 157.65 50.8735 156.93 50.461C156.692 50.2231 156.453 49.9836 156.215 49.7441C156.23 49.7657 156.245 49.7873 156.26 49.809C156.168 49.473 156.079 49.137 155.987 48.801C156.002 48.6929 156.017 48.5864 156.032 48.4783C155.308 50.9483 159.159 52.0045 159.881 49.5395C160.416 47.7116 158.68 46.3061 156.957 46.7784C155.265 47.2425 154.45 49.32 155.826 50.6157C157.047 51.765 159.274 50.9866 159.234 49.2035C159.112 43.9592 159.37 38.7098 160.026 33.5054C160.177 32.3095 160.357 31.1185 160.554 29.9309C160.651 29.3504 160.729 28.755 160.865 28.1812C160.862 28.1978 160.967 27.5657 160.962 27.7919C161.083 27.589 161.11 27.5358 161.043 27.6356C160.852 27.9333 160.52 28.0298 160.045 27.925C159.861 28.083 159.661 27.4144 159.967 28.0381C160.09 28.2876 160.287 28.5188 160.44 28.7483C160.787 29.2689 161.133 29.7912 161.481 30.3118C161.86 30.8807 162.238 31.4495 162.617 32.0184C162.792 32.2812 162.943 32.5922 163.149 32.8267C163.197 32.9099 163.244 32.9931 163.292 33.0779C163.254 32.7735 163.227 32.7935 163.212 33.1361C163.304 32.8001 163.394 32.4641 163.485 32.1282C163.58 31.9069 164.462 31.5992 164.686 31.6857C164.98 31.857 165.273 32.0284 165.568 32.1997C165.609 32.2579 165.652 32.3161 165.694 32.3727C164.784 33.2825 163.873 34.194 162.963 35.1038C167.771 37.6686 173.189 38.5052 178.553 37.6187C179.519 37.459 180.116 36.3163 179.983 35.4281C179.829 34.3985 179.04 33.7831 178.022 33.6983C155.041 31.7656 131.969 31.1485 108.911 31.2582C85.8276 31.368 62.7544 32.1963 39.6912 33.1311C26.9603 33.6467 14.0149 33.6384 1.46536 36.0735C0.615419 36.2382 0 37.1713 0 37.9979C0 38.951 0.642032 39.578 1.46536 39.9223C13.3845 44.9089 26.5362 47.0396 39.4201 46.0333C42.5587 45.7888 45.7472 45.4445 48.6031 44.029C50.9617 42.8597 52.8811 40.8305 54.0537 38.4869C56.5986 33.4056 56.2393 27.6722 55.248 22.2498C54.6691 19.0796 53.899 15.926 53.7161 12.6992C53.578 10.2558 53.5431 7.1671 55.1515 5.21106C56.7616 3.25337 60.0466 3.99187 62.3236 4.40437C65.3259 4.94826 68.2782 5.80153 71.1008 6.96251C73.7222 8.04199 76.5015 9.39092 78.7453 11.1424C79.5121 11.7412 80.535 12.7724 80.6016 13.6356C80.6149 13.8153 80.55 14.0099 80.2606 14.2494C79.883 14.5638 79.3391 14.78 78.8634 14.9696C72.8373 17.3631 66.6299 19.3075 60.3227 20.8061C47.818 23.7768 34.9092 24.9294 22.0736 24.2425C20.4552 24.156 18.8368 24.0379 17.2234 23.8948C16.1489 23.8 15.2275 24.8812 15.2275 25.8908C15.2308 27.0468 16.1473 27.787 17.2267 27.8834Z" fill="black"/>
</svg>
