<svg width="181" height="77" viewBox="0 0 181 77" fill="none" xmlns="http://www.w3.org/2000/svg">
<path d="M1.96564 34.7264C13.9938 33.0495 26.1469 32.4558 38.28 32.234C50.3831 32.0121 62.5052 32.0001 74.6073 32.265C86.6804 32.5288 98.7586 33.1744 110.747 34.6614C121.88 36.0425 132.939 38.1921 143.7 41.384C154.25 44.514 164.506 48.6643 174.09 54.0897C175.288 54.7673 176.474 55.4658 177.649 56.1814C177.851 55.4369 178.053 54.6913 178.255 53.9468C165.343 53.4951 152.582 50.7759 140.593 45.968C140.487 46.7535 140.38 47.538 140.274 48.3235C153.313 49.019 166.331 50.0744 179.311 51.4884C180.843 51.6553 180.831 49.2559 179.311 49.09C166.331 47.6759 153.313 46.6206 140.274 45.9251C138.818 45.8471 138.792 47.8138 139.956 48.2805C152.139 53.1663 165.137 55.8866 178.255 56.3453C179.475 56.3882 179.845 54.7093 178.86 54.1107C169.37 48.3365 159.144 43.8304 148.589 40.3927C137.892 36.9089 126.857 34.5215 115.726 32.9275C103.661 31.1997 91.4903 30.3622 79.3132 29.9894C67.1022 29.6147 54.8722 29.6277 42.6571 29.7706C30.3541 29.9145 18.0342 30.3602 5.81014 31.8293C4.31411 32.0091 2.82008 32.206 1.32806 32.4139C0.681477 32.5038 0.340699 33.3213 0.490602 33.8889C0.673483 34.5815 1.32706 34.8153 1.96564 34.7264Z" fill="black"/>
<path d="M39.798 1.18722C34.2256 9.78261 30.3621 19.5023 28.5283 29.5817C28.0616 32.147 27.7179 34.7383 27.508 37.3377C27.3461 39.3413 27.3721 41.457 28.0047 43.3857C28.6582 45.3754 29.9954 47.0493 32.041 47.7029C34.5274 48.4964 37.1987 47.4111 39.3143 46.1299C44.1142 43.2238 48.2145 39.1525 51.3335 34.5055C50.589 34.3036 49.8434 34.1018 49.0989 33.8999C49.024 34.9702 48.95 36.0405 48.8751 37.1108C48.8021 38.1561 48.5983 39.2814 48.7631 40.3217C49.048 42.1185 50.7439 42.877 52.4098 42.6852C54.1017 42.4903 55.7426 41.6388 57.1757 40.7564C58.7596 39.7811 60.2027 38.5649 61.4309 37.1688C60.8033 36.6841 60.1757 36.2004 59.5471 35.7157C58.6637 37.3856 57.7233 39.2394 57.9422 41.1891C58.14 42.942 59.1804 44.6809 60.9612 45.1845C62.8729 45.7252 64.7667 44.5869 65.9689 43.1699C67.0242 41.9247 67.7188 40.2178 69.1369 39.3244C68.5902 39.1805 68.0426 39.0375 67.4959 38.8936C67.8777 39.4483 67.463 40.4916 67.5319 41.1752C67.6249 42.0936 68.0915 42.962 68.94 43.3887C70.5539 44.2022 72.5656 43.3248 73.8778 42.3144C77.2596 39.7121 80.4185 36.752 83.4305 33.735C89.4836 27.672 94.8931 20.9513 99.5251 13.744C100.61 12.0551 102.295 9.9505 101.62 7.8089C101.316 6.84553 100.603 5.9721 99.603 5.69128C98.4618 5.37149 97.3665 5.92113 96.561 6.70462C95.8315 7.41416 95.2159 8.2746 94.5893 9.07408C93.9187 9.92852 93.2621 10.794 92.6256 11.6734C91.3924 13.3773 90.2291 15.1311 89.1398 16.93C86.9233 20.5896 85.0235 24.4301 83.4235 28.3975C82.6371 30.3482 81.9295 32.3299 81.3049 34.3376C80.6773 36.3543 80.0547 38.4189 79.679 40.4986C79.4841 41.5749 79.4042 42.6992 79.8249 43.7335C80.2057 44.6709 80.9172 45.4214 81.8216 45.8771C83.5345 46.7405 85.5602 46.7915 87.4229 46.5217C91.0246 45.999 94.3494 43.7984 96.3132 40.7464C96.8088 39.9759 97.1936 39.1415 97.5034 38.28C97.9071 37.1598 96.2762 36.2344 95.4987 37.1128C94.1316 38.6588 92.5736 40.5096 92.6645 42.7122C92.7405 44.5629 93.9377 46.5077 95.8844 46.7885C97.9631 47.0883 99.9838 45.3494 101.356 43.9813C102.845 42.4963 103.958 40.7244 104.735 38.7777C105.207 37.5935 103.53 36.864 102.73 37.6105C101.553 38.7098 100.685 40.1858 100.363 41.7708C100.194 42.6002 100.073 43.5236 100.445 44.3151C100.819 45.1086 101.579 45.5803 102.453 45.6063C104.066 45.6552 105.548 44.3611 106.792 43.4966C108.327 42.4303 109.818 41.3011 111.271 40.1248C110.603 39.7361 109.935 39.3473 109.267 38.9576C106.598 46.6216 103.137 53.9948 98.9564 60.9493C96.8498 64.455 94.5623 67.8518 92.1059 71.1216C91.5403 71.8741 90.9946 72.6856 90.337 73.3602C90.2261 73.4741 89.8054 73.9488 89.6035 73.8728C89.5226 73.8429 89.4037 73.5281 89.3817 73.4791C88.6651 71.8661 88.896 69.9914 89.4556 68.3764C90.7418 64.6658 93.7568 61.7238 96.3991 58.9416C99.2502 55.9395 102.194 53.0284 105.216 50.1993C111.29 44.511 117.673 39.1585 124.245 34.0548C130.803 28.9611 137.559 24.1233 144.405 19.4243C145.259 18.8377 146.116 18.2531 146.973 17.6715C146.488 17.0439 146.005 16.4163 145.52 15.7877C136.982 24.8968 128.443 34.0068 119.906 43.1159C117.921 45.2325 115.184 47.7549 115.609 50.9628C115.724 51.8292 116.547 52.5018 117.413 51.9981C122.051 49.2999 126.444 46.1969 130.554 42.7471C129.988 42.1815 129.424 41.6169 128.858 41.0512C127.32 42.4733 125.975 44.1122 124.885 45.9011C123.955 47.4251 122.153 50.3482 124.586 51.4445C125.447 51.8332 126.402 51.6893 127.284 51.4545C128.239 51.1996 129.165 50.8598 130.073 50.4691C131.826 49.7156 133.437 48.7042 134.916 47.502C136.603 46.1299 138.046 44.468 139.207 42.6312C139.835 41.6389 138.569 40.3227 137.566 40.9903C134.671 42.92 132.85 46 132.501 49.4538C132.438 50.0734 133.101 50.69 133.7 50.653C139.186 50.3182 144.411 48.1276 148.489 44.441C149.636 43.4037 147.937 41.7118 146.793 42.7451C143.206 45.988 138.528 47.9607 133.7 48.2545C134.1 48.6543 134.499 49.054 134.899 49.4538C135.158 46.8944 136.642 44.483 138.776 43.0609C138.23 42.5143 137.682 41.9666 137.136 41.42C135.496 44.0133 133.199 46.1339 130.506 47.601C129.183 48.3215 127.763 48.8921 126.292 49.2319C126.022 49.2939 125.876 49.2629 125.582 49.2849C125.692 49.2769 125.499 49.2969 125.489 49.2429C125.478 49.1799 125.697 49.4578 125.619 49.3268C125.759 49.5627 125.714 49.5287 125.801 49.2909C126.066 48.5633 126.506 47.8578 126.904 47.1972C127.904 45.5403 129.134 44.0613 130.555 42.7481C131.031 42.3084 131.001 41.4979 130.555 41.0522C130.063 40.5606 129.357 40.6345 128.859 41.0522C124.905 44.3711 120.666 47.3321 116.204 49.9274C116.806 50.2722 117.407 50.618 118.009 50.9628C117.679 48.4744 119.99 46.5337 121.523 44.8987C123.603 42.6792 125.684 40.4596 127.765 38.2391C131.899 33.8289 136.032 29.4178 140.167 25.0077C142.517 22.4993 144.868 19.992 147.219 17.4836C148.111 16.5312 146.937 14.8043 145.766 15.5998C138.518 20.5246 131.363 25.5913 124.409 30.9248C117.441 36.2693 110.666 41.8687 104.229 47.8458C101.039 50.8079 97.9321 53.8609 94.9291 57.0128C92.0179 60.0678 88.939 63.2068 87.352 67.1932C86.5965 69.091 86.3117 71.1876 86.7884 73.1923C87.0172 74.1567 87.405 75.22 88.2424 75.8156C89.1538 76.4642 90.335 76.3542 91.2315 75.7316C92.1099 75.121 92.7115 74.2546 93.3561 73.4171C94.0166 72.5587 94.6662 71.6903 95.3028 70.8138C96.556 69.089 97.7632 67.3301 98.9215 65.5403C103.595 58.322 107.476 50.598 110.511 42.5523C110.881 41.5709 111.237 40.5845 111.582 39.5942C111.755 39.0975 111.467 38.4949 111.032 38.2401C110.54 37.9523 109.997 38.0882 109.579 38.4279C108.542 39.2674 107.482 40.0759 106.398 40.8524C105.829 41.2591 105.254 41.6578 104.674 42.0476C104.16 42.3924 103.64 42.8001 103.074 43.0539C102.893 43.1349 102.703 43.1679 102.513 43.2228C102.518 43.2208 102.569 43.2208 102.562 43.2258C102.4 43.1709 102.383 43.1739 102.513 43.2348C102.587 43.2958 102.614 43.3078 102.594 43.2718C102.662 42.8621 102.654 42.4593 102.763 42.0466C103.046 40.9753 103.623 40.0579 104.43 39.3044C103.761 38.9156 103.094 38.5269 102.425 38.1371C101.878 39.5102 101.056 40.7924 100.054 41.8767C99.573 42.3974 99.0514 42.891 98.4897 43.3248C97.9531 43.7385 97.2585 44.3061 96.57 44.416C96.1423 44.484 95.8185 44.3281 95.5407 43.9833C95.2149 43.5786 95.061 43.0449 95.064 42.5553C95.072 41.1032 96.3002 39.824 97.1986 38.8067C96.53 38.418 95.8624 38.0292 95.1939 37.6395C94.1975 40.4077 91.8131 42.6432 89.0619 43.6385C87.0652 44.3601 81.7576 45.1955 81.9185 41.7818C81.9595 40.9053 82.2283 40.0309 82.4402 39.1845C82.67 38.2631 82.9169 37.3456 83.1807 36.4332C83.7084 34.6084 84.305 32.8036 84.9665 31.0238C86.2657 27.527 87.8327 24.1343 89.6345 20.8674C91.4693 17.5406 93.548 14.3486 95.8525 11.3286C96.4081 10.6011 96.9807 9.88655 97.5653 9.18201C97.8232 8.87121 98.5167 7.85787 98.9664 7.99778C99.4921 8.16167 99.3802 9.0331 99.2592 9.41885C98.9884 10.2853 98.3818 11.0758 97.9001 11.8363C93.8278 18.2711 89.1298 24.2972 83.8902 29.8236C81.248 32.6107 78.4718 35.27 75.5727 37.7874C74.8481 38.417 74.1156 39.0375 73.3761 39.6491C72.7605 40.1578 72.2368 40.6285 71.5113 40.9743C71.2395 41.1042 70.9497 41.2021 70.6519 41.2651C70.472 41.3031 70.2032 41.3101 70.0952 41.2751C70.0513 41.2611 69.8864 41.2451 70.0473 41.2591C70.0053 41.2561 69.9343 41.1452 69.9743 41.2111C70.0603 41.352 69.9623 41.1782 69.9613 41.1692C69.9184 40.8284 69.9233 40.5116 69.9593 40.1638C70.0503 39.2994 70.0872 38.4309 69.5706 37.6794C69.2128 37.1598 68.5113 36.883 67.9296 37.2487C66.6645 38.0462 65.832 39.2374 65.0066 40.4536C64.341 41.434 63.4086 42.8181 62.0965 42.92C61.0631 43.001 60.4365 41.9387 60.3256 41.0243C60.1497 39.5772 60.9722 38.1491 61.6208 36.9209C62.2294 35.7697 60.6764 34.4006 59.737 35.4679C58.7696 36.5682 57.6833 37.5535 56.4611 38.365C55.3219 39.1215 54.0357 39.865 52.7006 40.2068C52.2589 40.3197 51.7992 40.3847 51.4084 40.2617C51.2695 40.2178 51.1996 40.1678 51.1746 40.1108C51.0477 39.83 51.1136 39.4663 51.1316 39.1705C51.2395 37.4116 51.3764 35.6538 51.4994 33.8959C51.5883 32.6257 49.8764 32.3789 49.2648 33.2903C46.7385 37.0538 43.5086 40.3667 39.785 42.955C38.0221 44.1802 35.9375 45.6193 33.695 45.5623C31.9511 45.5183 30.8218 44.2711 30.3202 42.7441C29.7715 41.0732 29.7595 39.2794 29.8924 37.5415C30.0713 35.1881 30.3751 32.8456 30.7889 30.5231C31.6283 25.8022 32.9115 21.1612 34.6114 16.6771C36.5091 11.6724 38.9615 6.8845 41.8726 2.39343C42.7101 1.09927 40.6354 -0.104942 39.798 1.18722Z" fill="black"/>
</svg>
